<?xml version="1.0" encoding="UTF-8" standalone="no"?>
<!-- Pecita V5 font preview © 2015 Philippe Cochy : reproduce open by keeping the signature of the author -->
<!DOCTYPE svg PUBLIC "-//W3C//DTD SVG 1.1//EN" "http://www.w3.org/Graphics/SVG/1.1/DTD/svg11.dtd" >
<svg version="1.1" xmlns="http://www.w3.org/2000/svg" viewBox="0 0 1000 1000" width="90%" height="90%">
<title id="titre">Cerise sur le gato</title>
<desc>Pecita version 5 implements diacritics on contextual alternates. It’s “łⱥ ćệŗḭṧể ṩṹṟ ḷễ ģẳŧǿ”!</desc>
	<g>
		<path id="queue" fill="darkgreen" d="M308 140c45 -19 87 -51 283 -80c15 -2 26 -15 26 -30c0 -18 -14 -30 -30 -30h-4c-129 19 -230 51 -292 81z" />
	</g>
	<g>
		<path id="cerise" fill="#dc1414" d="M316 143c0 -57 -49 -92 -92 -92c-64 0 -130 49 -130 119c0 52 41 93 93 93c67 0 129 -47 129 -120z" />
	</g>
	<g>
		<path id="gato" fill="black" d="M269 399c0 16 -13 30 -30 30c-15 0 -28 -12 -30 -27v-3c0 -14 14 -27 30 -27c15 0 30 11 30 27zM189 402c0 16 -14 30 -30 30c-18 0 -28 -15 -30 -30v-3c0 -14 15 -27 30 -27c18 0 30 14 30 30zM195 341c-15 0 -18 -5 -21 -10c-11 -22 -21 -41 -26 -51s-17 -15 -28 -15
c-12 0 -22 8 -26 15c-14 24 -27 45 -38 72c-8 20 -16 38 -16 64c0 68 53 116 116 134c2 2 13 13 13 40c0 29 -23 65 -55 107s-75 91 -75 153c0 86 64 150 150 150c58 0 100 -23 124 -42c18 -14 40 -28 76 -28c20 0 25 2 54 31c24 24 52 39 90 39c50 0 91 -24 116 -49
c6 -6 9 -13 9 -21c0 -16 -14 -30 -30 -30c-8 0 -15 3 -21 9c-15 15 -44 31 -74 31c-22 0 -33 -5 -49 -21c-31 -31 -55 -49 -95 -49c-54 0 -92 24 -114 42c-16 13 -44 28 -86 28c-54 0 -90 -36 -90 -90c0 -32 28 -71 63 -117c31 -40 67 -86 67 -143c0 -13 -2 -24 -4 -34
c64 -7 119 -55 119 -125c0 -37 -15 -66 -26 -89c-9 -19 -19 -38 -34 -65c-5 -10 -15 -16 -26 -16c-12 0 -22 8 -26 15c-6 10 -16 29 -22 55c-1 6 -6 10 -15 10z" />
	</g>
	<g>
		<path id="textblack" fill="#1a1a1a" d="M479.52 607.89c0.210022 3.5 -3.19 7.91998 -9.12997 11.35c-1.35001 -1.38 -2.16 -3 -2.30002 -5.33997c-0.25 -5.02002 3.08002 -9.16003 7.64001 -9.41003c2.16 -0.109985 3.67999 1.23999 3.78998 3.40002zM483.94 622.97
c-2.86002 0.130005 -5.73001 -0.0799561 -8.07001 -0.73999c5.13 -3.60999 9.38 -8.67999 9.06 -14.62c-0.25 -5.01996 -4.38998 -8.76996 -9.44998 -8.51996c-8 0.419983 -13.09 7.52997 -12.7 15.1c0.179993 2.83002 1.10001 5.40997 2.62 7.5
c-3.92999 1.65997 -8.16998 2.65997 -11.96 2.87c-7.57001 0.429993 -15.54 -3.77002 -17.34 -22.7c4.32001 -0.570007 9.31 -1.20001 14.26 -1.45001c1.45001 -0.0699463 2.61002 -1.37994 2.54001 -2.82996s-1.38 -2.61005 -2.82999 -2.54004
c-5.02002 0.280029 -9.94 0.77002 -14.36 1.34003c-0.139984 -9.38 1.87 -15.74 1.80002 -16.91c-0.0700073 -1.34998 -1.20001 -2.62 -2.83002 -2.54999c-1.06 0.0700073 -2.13 0.850037 -2.47998 2.02002c-0.0700073 0.279968 -2.08002 8.62 -1.80002 18.39
c-2.75998 0.48999 -6.29999 0.609985 -6.12 3.57996c0.0700073 1.59003 1.51001 2.62006 2.86002 2.55005c1.16998 -0.0700073 2.25998 -0.5 3.60999 -0.75c2.16 20.17 11.87 27.86 22.94 27.2599c5.31 -0.279968 11.04 -1.90997 16.24 -4.34998
c4.20001 2.28998 9.39999 3 14.45 2.76001c8.5 -0.549988 16.51 -8.13 16.05 -17.06c-0.109985 -2.33002 -1.06 -3.53998 -1.16998 -5.34003c-0.110016 -1.97998 5.79999 -3.01001 8.84 -3.14996c3.14999 -0.179993 5.67001 1.13995 6.66 6.29999
c1.83997 9.52002 6.08002 17.33 16.16 16.8c9.20001 -0.5 12.07 -8.46997 15.96 -17.24c2.87 -6.72003 4.48999 -8.13 6.12 -8.23999c1.52002 -0.0700073 2.71997 0.459961 3.10999 7.92999c0.350037 6.53998 1.34003 13.47 7.92004 13.12
c5.62994 -0.320007 8.5 -6.03998 11.54 -11.21c3.57001 -5.97998 5.70001 -8.59998 7.21997 -8.66998c0.640015 -0.039978 1.84003 0.169983 2.23004 7.98999c0.389954 7.32001 3.32996 13.3 9.65997 12.98c5.06 -0.25 9.79999 -2.87006 13.09 -6.37006
c1.41998 3.15002 4.32001 5.44 8.45996 5.23004c6.12 -0.320007 12.06 -4.25 15.99 -9.66003c1.55005 4.25 4.94 8.57001 10.96 8.25c10.4 -0.529968 16.8 -15.71 21.12 -28.13c0.0400391 1.73004 0.100037 3.62006 0.210022 5.42004
c0.349976 6.64996 2.12 14.72 3.82001 19.53c0.320007 0.960022 1.32001 1.79999 2.66998 1.73004c1.16998 -0.0700073 2.25 -0.950012 2.53003 -2.12006c1.48999 -6.29999 2.93994 -9.87 5.16998 -12.42c2.04999 -2.26001 5.54999 -4.25 11.46 -5.38
c1.35004 -0.25 2.27002 -1.45001 2.20001 -2.78998c-0.0700073 -1.63 -1.41998 -2.66003 -2.83997 -2.59003l-0.400024 0.0400391c-9.62 1.83997 -14.84 5.83997 -17.99 12.81c-0.640015 -3.17999 -1.09998 -6.29999 -1.23999 -9.10004
c-0.710022 -13.41 0.849976 -26.93 1.20001 -29.33l-0.0300293 -0.460022c-0.0700073 -1.34003 -1.23999 -2.65002 -2.87 -2.53998c-1.34003 0.0700073 -2.27002 1.08997 -2.47998 2.12c-0.740051 3.53998 -11.43 47.2 -22.82 47.8
c-4.42004 0.25 -6.56 -4.89001 -6.88 -11.33c-0.0700073 -1.45001 -1.41003 -2.62 -2.83002 -2.54999c-1.16998 0.0700073 -2.13 0.960022 -2.40997 2.02002c-1.98004 7.21997 -9.06 12.99 -14.83 13.27c-2.22998 0.110046 -3.64001 -1.23999 -3.82001 -4.32001
c-0.320007 -6.60999 6.44 -14.6899 12.74 -15.04c1.52002 -0.0700073 3.29004 0.919983 3.92999 2.41003c0.420044 1.06 1.41003 1.83997 2.58002 1.76996c1.63 -0.0700073 2.62 -1.48999 2.54999 -2.87c-0.039978 -0.25 -0.0999756 -0.529968 -0.209961 -0.779968
c-1.48004 -3.82001 -5.27002 -6.12 -9.13 -5.94c-8.28003 0.459961 -15.43 7.95996 -17.41 15.99c-1.44 4.26001 -7.13 9.59998 -12.69 9.92999h-0.0799561c-1.70001 0.0700073 -3.64001 -0.890015 -4 -7.85999c-0.350037 -6.58002 -1.31 -13.48 -7.89001 -13.12
c-5.66003 0.279968 -8.53003 6.03998 -11.57 11.21c-3.58002 5.94 -5.65997 8.60004 -7.17999 8.67004c-0.640015 0.039978 -1.81 -0.180054 -2.22998 -8c-0.350037 -6.90002 -2.05005 -13.41 -8.81006 -13.05c-5.54999 0.320007 -8.10999 5.41003 -10.87 11.57
c-4.13995 9.66003 -5.96997 13.63 -11.21 13.91c-6.12 0.320007 -8.70001 -3.25 -10.58 -12.38c-1.40997 -7.33002 -6.40002 -11.05 -12.24 -10.73c-3.96002 0.210022 -7.07001 1.28003 -8.84 1.92004c-2.19 0.73999 -5.34 2.96997 -5.13 6.92999
c0.139984 2.33997 1.09 3.57001 1.19998 5.33997c0.279999 5.38 -5.26999 11.05 -11.11 11.37zM324.45 237.76c0.779999 14.54 2.64999 20.03 4.94998 25.87c0.600006 1.54999 1.39001 2.60999 2.81 2.54001c1.77002 -0.110016 2.64001 -1.31003 2.57001 -2.83002
c-0.0400085 -0.459991 -0.170013 -0.98999 -0.380005 -1.51999c-2.04999 -5.31 -3.84 -10.5 -4.57999 -24.34c-0.529999 -10.33 2.69 -25.37 13.06 -25.9c7.17999 -0.389999 11.04 3.94 11.39 11.12c0.320007 5.91 -4.87 10.14 -11.95 12.3
c-1.80002 0.529999 -2.62 1.38 -2.55002 2.83c0.0700073 1.8 1.03 2.66 2.83002 2.55c0.279999 0 0.880005 -0.110001 1.31 -0.25c7.10999 -2.16 16.28 -7.39 15.71 -17.72c-0.529999 -10.15 -6.87 -16.77 -17.02 -16.24c-13.83 0.710007 -18.86 17.76 -18.15 31.59z
M376.35 231.43c-8.10001 0.420013 -15.71 10.55 -15.18 20.42c0.569977 10.97 12.82 12.13 18.69 11.81c6.26001 -0.320007 10.75 -2.01999 14.18 -3.36002c1.88 -0.73999 2.66 -1.47998 2.59 -2.92999c-0.110016 -1.76999 -1.07001 -2.65999 -2.87 -2.54999
c-0.350006 0 -0.880005 0.139999 -1.66 0.419998c-2.64999 1.05998 -7.19 2.73 -12.53 3.00999c-5.41 0.279999 -8.28 -0.75 -9.91 -1.81c4.85001 -0.25 17.55 -6.82001 17.02 -16.55c-0.279999 -5.66 -4.78 -8.74001 -10.33 -8.46001zM376.64 236.81
c2.68997 -0.139999 4.53 0.669998 4.66998 3.36c0.279999 5.02 -7.54001 11 -14.72 11.39c-0.389984 -7.14999 5.20001 -14.5 10.05 -14.75zM458.33 214.89c-1.16998 0.0700073 -2.65997 0.669998 -2.54999 2.83c0.110016 1.91 1.66 4.03999 3.82001 3.92999
c1.59 -0.110001 3.50998 -1.06999 3.39999 -2.87c-0.109985 -2.05 -2.76001 -3.99001 -4.67001 -3.89zM417.43 259.9c15.82 -0.850006 26.11 -10.4 36.37 -10.93c1.91 -0.110001 2.55002 1.69 3.33002 3.45999c1.44998 2.97 3.5 6.13 7.95999 5.88
c1.80002 -0.0700073 3.64001 -0.75 7.11002 -2.09c1.84 -0.740005 2.62 -1.49001 2.54999 -2.94c-0.109985 -1.77 -1.06 -2.64999 -2.82999 -2.55c-0.390015 0 -0.920013 0.150009 -1.70001 0.430008c-2.64999 1.06 -4.14999 1.66 -5.42001 1.73
c-1.59 0.110001 -2.13998 -1.41 -2.84998 -2.83c-1.24002 -2.62 -3.37003 -6.72 -8.43002 -6.47c-10.79 0.570007 -21.45 10.15 -36.38 10.93c-4.28003 0.209991 -8.24002 -3.36 -8.49002 -7.64c-0.350006 -7.22 4.60001 -12 11.08 -12.35
c1.79999 -0.0699921 3.70999 0.389999 4.98999 0.919998c0.73999 0.350006 1.42001 0.559998 2.29999 0.529999c1.52002 -0.0699921 2.61002 -1.48 2.54001 -2.83c-0.0700073 -1.26999 -1.26999 -2.07999 -2.82999 -2.72c-2.23001 -0.889999 -4.60001 -1.42 -7.29001 -1.28
c-8.98999 0.490005 -16.7 7.29001 -16.13 18.08c0.350006 7.18001 6.97 13.02 14.12 12.67zM476.02 208.56c0.0400085 0.350006 0.140015 1.16 0.460022 1.87c1.62997 4.25 3.47 21.87 4.84998 30.82c1.10001 7.11 3.96002 13.27 8.81003 13.02
c2.64999 -0.139999 5.12997 -2.5 6.78998 -5.3c1.24002 -2.16 3.12 -4.71001 5.31 -7.47c3.57001 -4.32001 8.18002 -8.91 13.59 -11.99c1.38 -0.779999 2.62 -1.37999 2.54999 -2.83c-0.109985 -1.79999 -1.07001 -2.65999 -2.84003 -2.54999
c-0.73999 0.0399933 -1.75 0.389999 -2.48999 0.779999c-6.01999 3.36 -11.13 8.41 -15.06 13.19c-2.37 2.93999 -4.23999 5.65999 -5.62 7.95999c-0.809998 1.27 -1.84 2.79001 -2.51001 2.83c-1.26999 0.0700073 -2.75998 -5.59 -3.14999 -8.28
c-1.38 -8.95 -3.19998 -27.39 -5.31998 -32.34c-0.600006 -1.42 -1.41 -2.65001 -2.82001 -2.58c-1.80002 0.110001 -2.66 1.06999 -2.55002 2.87zM549.44 252.08c1.79999 -0.0700073 2.65997 -1.07001 2.54999 -2.87
c-0.0299683 -0.350006 -0.039978 -0.600006 -0.179993 -1.06001c-0.419983 -1.76999 -1.63 -4.34999 -4 -6.39999c-1.90997 -1.73 -3.03998 -2.94 -4.48999 -2.87c-1.79999 0.0999908 -2.15002 0.959991 -3.5 3.00999c-0.640015 0.990005 -1.84003 2.77 -3.78998 4.47
c-2.37006 2.02 -5.69 3.98 -10.08 4.23c-2.69 0.139999 -4.60999 -1.55 -4.75 -4.28c-0.320007 -6.44 5.65997 -12.88 12.14 -13.2c4.31995 -0.25 5.44995 1.53 7.25 1.42c1.76996 -0.110001 2.62994 -1.03 2.51996 -2.83c-0.0700073 -1.8 -4.32001 -4.28999 -10.05 -3.97
c-9.54999 0.5 -17.76 9.38 -17.27 18.86c0.320007 5.7 4.78003 9.70001 10.44 9.42001c5.73004 -0.320007 10.19 -2.98001 13.34 -5.56001c2.27002 -2.05 3.60999 -3.98999 4.27997 -5.02c0.670044 0.600006 2.26001 2.33 2.72003 4.06001
c0.5 1.79999 1.41998 2.65999 2.87 2.59zM658.6 222.01c0.0700073 1.10001 -0.569946 4.77 -12.74 6.01001c1.03003 -4.81 4.04004 -8.24001 8.10999 -8.45c3.04004 -0.140015 4.56006 1.09999 4.63 2.43999zM745.82 237.29c-0.140015 -2.89999 2.06 -5.73 6.54999 -7.70999
c0.25 0.889999 0.349976 1.84 0.419983 2.83c0.210022 4.09999 -2.19 6.39999 -5.06 6.53999c-1.09998 0.0700073 -1.83997 -0.599991 -1.90997 -1.66zM776.18 197.87c-1.79999 0.110001 -2.54999 2.84001 -2.44 4.64c0.0700073 1.52 1.31 2.58 2.83002 2.51001
c1.79999 -0.110001 2.54999 -2.8 2.44 -4.60001c-0.0700073 -1.52 -1.31 -2.62 -2.83002 -2.55zM878.99 234.8c-0.0299683 -0.740005 -0.320007 -1.31 -0.919983 -1.84c-2.16003 -1.95001 -2.51001 -3.12001 -3.75 -10.44c-0.780029 -4.53 -1.60004 -14.4 -9.31 -14.01
c-6.54999 0.350006 -8.72998 8.32001 -10.75 12.92c-2.76001 6.23001 -4.57001 9.47 -6.09003 9.58c-0.98999 0.0400085 -2.01996 -7.36 -2.29999 -9.15999c-1.56 -10.33 -8.81 -13.68 -15.99 -13.29c-12.21 0.639999 -19.36 4.73 -19.89 5.01001
c-0.880005 0.569992 -1.38 1.53 -1.31 2.40999c0.0700073 1.73001 1.60004 2.62001 2.94 2.55c1.52002 -0.110001 1.45001 -1 4.32001 -1.14c4.56 -0.25 8.27997 3.53999 8.56 8.57001c0.320007 6.37 -5.20001 11.99 -11.96 12.34
c-4.84998 0.25 -8.23999 -2.81 -8.48999 -7.66c-0.0700073 -1.63 0.0300293 -3.06 0.48999 -4.44c0.0300293 -0.349991 0.150024 -0.62999 0.110046 -1.02c-0.0700073 -1.34 -1.24005 -2.62 -2.83002 -2.54999c-0.98999 0.0699921 -1.95001 0.73999 -2.37 1.65999
c-0.710022 1.66 -7.08002 12.33 -14.9 12.75c-6.40997 0.320007 -8.20001 -2.09 -8.58997 -9.40999c-0.0700073 -1.52 0.0499878 -4.14 0.399963 -5.55c0.109985 -0.279999 0.170044 -0.540009 0.140015 -0.820007c-0.0700073 -1.34999 -1.20001 -2.62 -2.83002 -2.54999
c-1.51996 0.110001 -5.47998 3.00999 -12.42 3.37h-0.0900269c-2.10999 0.110001 -4.15997 0.399994 -6.06995 0.849991c-2.40002 -3.39999 -6.43005 -5.62999 -11.14 -5.37999c-7.85004 0.419998 -13.38 7 -17.52 11.67c-4.25 4.70999 -11.81 11.47 -16.41 11.72
c-6.12 0.319992 -8.70001 -3.25 -10.58 -12.38c-1.41998 -7.31999 -6.40002 -11.04 -12.24 -10.72c-3.96002 0.210007 -7.08002 1.27 -8.85004 1.91c-2.19 0.740005 -5.33997 2.97 -5.13 6.92999c0.140015 2.34001 1.10004 3.58 1.21002 5.35001
c0.280029 5.38 -5.25 11.03 -11.09 11.35c-7.93005 0.419998 -15.95 -3.85001 -17.44 -9.94c13.13 -1.2 18.4 -6.01001 18.08 -11.71c-0.320007 -5.84 -6.13 -7.75 -10.27 -7.53999c-7.89001 0.419998 -12.41 7.39 -13.33 14.22l-2.16998 0.149994
c-4 0.210007 -5.24005 -0.919998 -6.65002 -5.73c-0.359985 -1.13 -1.56 -2.00999 -2.72998 -1.94c-1.45001 0.0700073 -2.26001 1.12 -2.51001 2.28999c-1.38 9.38 -8.29999 22.6 -11.52 22.78c-2.33997 0.110001 -5.5 -4.77 -9.14001 -18.99
c-0.349976 -1.24001 -1.45996 -2.09 -2.72998 -2.02c-1.63 0.0700073 -2.62 1.53 -2.54999 2.87001c0 0.179993 0.109985 0.349991 0.109985 0.529999c3.17999 12.42 6.19 23.42 14.61 23c7.64001 -0.420013 12.46 -12.03 14.9 -20.24c2.06 2.03 5.06 2.95 8.37 2.8
h0.119995h0.0499878l1.87 -0.12001c1.80005 10.51 13.57 15.5 23.19 15.01c8.56 -0.460007 16.66 -8.07001 16.2 -17.06c-0.109985 -2.34001 -1.06 -3.54001 -1.15997 -5.34001c-0.109985 -1.98 5.79999 -3.00999 8.83997 -3.14999
c3.15002 -0.179993 5.67004 1.17 6.66003 6.33c1.83997 9.52 6.07001 17.31 16.16 16.78c8 -0.419998 15.82 -8.86 20.1 -13.6c4.34998 -4.78 9.03998 -9.54999 13.8199 -9.79999c2.19 -0.110001 3.94 0.610001 5.39001 1.87999c-5.15997 2.44 -9.40997 6.82001 -9.13 12.73
c0.210022 3.92999 3.61005 7.00999 7.54004 6.79999c6.12 -0.319992 10.54 -5.59 10.19 -12.24c-0.0700073 -1.42 -0.360046 -2.87001 -0.710022 -4.18001c1.34003 -0.25 2.69 -0.429993 4.07001 -0.5h0.0999756c3.38 -0.190002 6.34003 -0.940002 8.89001 -1.78
c-0.0700073 0.809998 -0.039978 1.53 0 2.24001c0.460022 8.73999 4.44 14.98 14.16 14.54h0.110046c6.29999 -0.319992 11.11 -4.39 14.33 -8.14c1.77002 5.95 7.19 9.69 13.66 9.37c9.40997 -0.5 17.58 -8.23999 17.09 -18.01c-0.25 -4.49001 -2.37 -8.42 -5.72998 -11.04
c1.70001 -0.279999 3.82001 -0.559998 5.97998 -0.669998c5.41003 -0.280014 9.27002 1.2 10.4 8.73999c0.280029 1.88 0.929993 5.49001 1.28003 7.29001c0.5 2.48 2.14996 6.64999 6.60999 6.43999c6.58002 -0.349991 8.70001 -8.14 10.79 -12.92
c2.65002 -6.09 4.54004 -9.50999 6.06 -9.58c1.27002 -0.0699921 2.40002 2.76001 3.67999 9.62001c1.27002 6.92999 2.08002 10.22 5.55005 13.37c0.569946 0.5 1.19995 0.740005 1.90997 0.710007c1.45001 -0.0700073 2.62 -1.42 2.54999 -2.83zM928.22 228.56
c0.0300293 0.779999 0.430054 1.55 1.10004 2.08c0.349976 0.25 5.33997 3.96001 11.78 3.61c6.65002 -0.350006 15.15 -3.78 14.69 -12.49c-0.320007 -6.09 -5.73999 -10.76 -10.09 -14.86c-4.73999 -4.42 -8.28003 -8.31 -8.41998 -11.14
c-0.180054 -3.5 0.669983 -4.03999 0.599976 -5.48999c-0.0700073 -1.35001 -1.20001 -2.61 -2.78998 -2.54001c-0.990051 0.0700073 -2.05005 0.630005 -2.44 1.76001c-0.0700073 0.349991 -0.960022 2.87 -0.75 6.54999c0.319946 6.09001 5.65997 10.76 10.05 14.86
c4.70996 4.42001 8.23999 8.31001 8.41998 11.18c0.179993 3.84999 -3.64001 6.44 -9.54999 6.75999c-5.91003 0.320007 -7.53998 -3.17999 -10.05 -3.03999c-1.34003 0.0699921 -2.66003 1.2 -2.55005 2.75999zM943.72 194.52
c2.05005 -0.110001 4.71002 -2.79001 15.32 -5.34001c1.20001 -0.319992 2.13 -1.53 2.06 -2.79999c-0.109985 -1.63 -1.44995 -2.62001 -2.79999 -2.55h-0.459961c-10.05 2.41 -15.33 5.49001 -15.6801 5.7c-0.779968 0.490005 -1.37 1.52 -1.29999 2.50999
c0.0700073 1.63 1.51001 2.55 2.85999 2.48001zM375.7 307.08c1.76999 -0.0699768 2.78998 2.55002 2.85999 4.35001c0.110016 1.52002 -0.980011 2.80002 -2.47 2.87c-1.51999 0.100006 -2.87 -2.82999 -2.94 -4.38998c-0.0700073 -1.51999 1.03 -2.72 2.55002 -2.83002z
M474.2 348.77c6.75998 -0.349976 11.39 -5.72998 14.15 -10.58c1.59 8.13998 2.82001 25.26 3.45999 37.57c0.0700073 1.16998 1.20999 2.62 2.84 2.54999c1.34 -0.0700073 2.59 -1.20001 2.55002 -2.64999c0.109985 -6.79001 0.349976 -12.71 0.879974 -18.05
c2.44 -27.03 9.62003 -34.88 15.25 -35.2c4.41998 -0.209991 7.39996 3.17999 7.67999 8.59c0.25 4.28 -1.62 8.92999 -4.31 10.52c-0.809998 0.460022 -1.34003 1.41 -1.31 2.40002c0.0700073 1.41998 1.38 2.62 2.82996 2.54999l7.17004 -0.390015
c5.65997 -0.279999 10.96 -3.07999 15.67 -7.03998c3.82001 5.91 10.37 9.31 18.65 8.85001c5.90997 -0.280029 12 -2.76001 16.95 -6.37003c3.84003 1.13 8.27002 1.45001 12.4301 1.24002h0.149963c9.20001 -0.5 12.07 -8.47 15.96 -17.25
c2.87 -6.72 4.48999 -8.14001 6.12 -8.25c1.52002 -0.0700073 2.71997 0.459991 3.10999 7.92999c0.350037 6.54999 1.35004 13.47 7.92999 13.12c5.63 -0.320007 8.52002 -6.03 11.56 -11.2c3.58002 -5.97998 5.67004 -8.60999 7.19 -8.67999
c0.640015 -0.039978 1.84003 0.179993 2.23004 8c0.349976 6.51001 1.33997 13.4 7.84998 13.05c5.65997 -0.279999 8.52997 -6.05002 11.57 -11.25c3.60999 -5.91 5.70001 -8.56 7.21997 -8.63c0.640015 -0.0299988 1.81 0.199982 2.23004 7.97998
c0.25 4.85001 2.64996 10.67 8.63 10.35c5.31 -0.279999 11.04 -1.89999 16.24 -4.34c4.20996 2.30002 9.26996 3.01001 14.33 2.76001h0.120056c9.06995 -0.580017 11.93 -8.52002 15.8 -17.25c2.87 -6.72 4.48999 -8.13 6.12 -8.24002
c1.51996 -0.0699768 2.71997 0.460022 3.10999 7.93002c0.349976 6.54999 1.34998 13.47 7.92999 13.12c5.63 -0.320007 8.48999 -6.04001 11.53 -11.21c3.57001 -5.98001 5.69995 -8.60001 7.21997 -8.67001c0.640015 -0.0299988 1.84003 0.179993 2.22998 8
c0.390015 7.28 3.30005 13.22 9.55005 12.98h0.109985c10.4 -0.529999 16.81 -15.72 21.13 -28.14c0.039978 1.73001 0.0999756 3.61002 0.209961 5.41c0.350037 6.64999 2.12006 14.72 3.82001 19.53c0.320007 0.959991 1.35004 1.79999 2.69 1.73001
c1.17004 -0.0700073 2.23004 -0.950012 2.51001 -2.12c1.48999 -6.30002 2.94 -9.87003 5.16998 -12.42c2.05005 -2.26999 5.55005 -4.25 11.46 -5.38c1.34003 -0.25 2.26001 -1.44998 2.19 -2.79001c-0.0700073 -1.62997 -1.41998 -2.64999 -2.83002 -2.57999
l-0.409973 0.0299988c-9.62 1.84 -14.84 5.85001 -17.99 12.82c-0.640015 -3.17999 -1.12 -6.31 -1.26001 -9.10001c-0.710022 -13.41 0.880005 -26.93 1.22998 -29.34l-0.0299683 -0.459991c-0.0700073 -1.34003 -1.23999 -2.65002 -2.87 -2.54001
c-1.34003 0.0700073 -2.27002 1.10001 -2.48004 2.12c-0.73999 3.53 -11.39 47.04 -22.76 47.8h-0.0599976c-1.69995 0.0700073 -3.64996 -0.869995 -4 -7.84c-0.359985 -6.57999 -1.31 -13.48 -7.88995 -13.13c-5.66003 0.280029 -8.53003 6.05002 -11.57 11.22
c-3.57001 5.94 -5.65002 8.60001 -7.17004 8.67001c-0.639954 0.0299988 -1.81995 -0.179993 -2.23999 -8c-0.349976 -6.89999 -2.04999 -13.4 -8.81 -13.05c-5.56 0.319977 -8.09998 5.38998 -10.86 11.55c-4.14001 9.66 -5.97998 13.66 -11.22 13.94h-0.0900269
c-2.85999 0.130005 -5.64001 -0.100006 -7.97998 -0.76001c5.13 -3.60999 9.38 -8.66998 9.06 -14.61c-0.25 -5.02002 -4.38 -8.77002 -9.44 -8.52002c-8 0.420013 -13.1 7.54001 -12.71 15.11c0.179993 2.82999 1.10004 5.41 2.62 7.5
c-3.92999 1.66 -8.20001 2.64999 -11.99 2.85999c-1.16998 0.0700073 -2.76001 -1.09 -2.96997 -5.22998c-0.350037 -6.55002 -1.34003 -13.42 -7.89001 -13.07c-5.66003 0.279999 -8.53003 6.01001 -11.57 11.25c-3.57001 5.91 -5.70001 8.53 -7.22003 8.60001
c-0.599976 0.0299988 -1.76996 -0.149994 -2.19 -7.92999c-0.349976 -6.58002 -1.31 -13.48 -7.88995 -13.13c-5.66003 0.279999 -8.53003 6.06 -11.57 11.22c-3.57001 5.94998 -5.66003 8.59998 -7.17999 8.66998c-0.640015 0.0299988 -1.81 -0.179993 -2.23004 -8
c-0.349976 -6.89999 -2.06 -13.4 -8.81995 -13.05c-5.56006 0.320007 -8.10004 5.41 -10.86 11.57c-4.10999 9.59 -5.96997 13.59 -11.12 13.92h-0.190002c-2.39996 0.110016 -4.91998 0.0800171 -7.17999 -0.23999c3.92999 -4.28 6.69 -9.53 6.37 -15.01
c-0.25 -5.01999 -4.38 -8.79999 -9.40997 -8.51999c-7.98999 0.419983 -13.13 7.53 -12.74 15.1c0.25 4.34998 2.17999 7.81998 5.12 10.08c-3.86005 2.29999 -7.73004 3.54001 -11.59 3.72c-7.10999 0.389984 -11.64 -2.37 -14.33 -7.25
c10.05 -10.97 16.95 -27.99 16.31 -40.55c-0.279968 -5.48001 -3.89996 -9.73001 -8.56995 -9.48001c-13.41 0.709991 -16.73 24.91 -15.9901 39.56c0.180054 3.32999 0.820007 6.48999 1.77002 9.32001c-4.34998 3.95999 -9.02002 6.35001 -13.51 6.60001h-0.809998
c1.63 -3.11002 2.26001 -6.55002 2.09003 -9.91c-0.350037 -7.22 -5.17004 -14.18 -13.34 -13.76c-8.76999 0.459991 -15.07 9.26999 -18.43 26.25c-0.98999 -7.04001 -1.94998 -11.4 -3.72 -14.51c-0.529999 -0.919983 -1.56 -1.48999 -2.54999 -1.44998
c-1.42001 0.100006 -2.33002 1.23999 -2.44 2.29999c-0.73999 4.85001 -6.05002 13.44 -11.99 13.76c-1.17001 0.0700073 -2.76001 -1.11002 -2.97 -5.25c-0.350006 -6.55002 -1.35001 -13.4 -7.89001 -13.05c-5.66 0.279999 -8.53 6.01001 -11.57 11.25
c-3.57999 5.91 -5.69998 8.53 -7.22 8.60001c-0.599976 0.0299988 -1.76999 -0.139984 -2.19 -7.92999c-0.349976 -6.57999 -1.31 -13.47 -7.88998 -13.12c-5.66 0.279999 -8.53 6.04001 -11.57 11.21c-3.57001 5.95001 -5.66 8.60001 -7.17999 8.67001
c-0.640015 0.039978 -1.79999 -0.180023 -2.23001 -8c-0.350006 -6.90002 -2.04999 -13.41 -8.81 -13.05c-5.54999 0.320007 -8.10999 5.41 -10.87 11.57c-4.13998 9.66 -5.98001 13.63 -11.22 13.91c-6.37 0.320007 -8.20001 -2.09 -8.59 -9.41
c-0.0700073 -1.63 -0.0799866 -5.16 0.380005 -8.48999c0 -0.180023 0.0799866 -0.390015 0.0799866 -0.570007c-0.0700073 -1.34 -1.23999 -2.64999 -2.87 -2.58002c-1.23999 0.0700073 -2.29999 1.07001 -2.48001 2.31003
c-0.599976 3.92999 -0.599976 7.63998 -0.48999 9.62c0.459991 8.78 4.48999 15.04 14.26 14.54c9.19998 -0.5 12.07 -8.45999 15.96 -17.23c2.87 -6.72 4.48999 -8.16 6.12 -8.26001c1.52002 -0.0700073 2.72 0.470001 3.11002 7.92999
c0.350006 6.55002 1.35001 13.47 7.92999 13.12c5.63 -0.320007 8.48999 -6.05002 11.53 -11.21c3.57001 -5.97998 5.70001 -8.60001 7.22 -8.66998c0.639984 -0.0400085 1.84 0.169983 2.23001 7.98999c0.349976 6.51001 1.34998 13.42 7.85999 13.06
c5.66 -0.279999 8.53 -6.07001 11.57 -11.27c3.60999 -5.91 5.69 -8.52002 7.20999 -8.59c0.640015 -0.0400085 1.81 0.159973 2.23001 7.94c0.25 4.84998 2.64999 10.7 8.63 10.38zM556.06 294.96c0.5 9.80002 -4.98999 24.38 -13.16 34.46
c-0.390015 -1.52002 -0.530029 -3.22 -0.630005 -4.95001c-0.809998 -15.92 4.45996 -33.55 10.86 -33.87c0.710022 -0.0400085 2.75 0.859985 2.92999 4.35999zM582.69 322.41c0.25 4.13998 -2.41998 8.88998 -6.98999 12.92
c-2.65002 -1.37997 -4.21002 -3.37 -4.41998 -6.93997c-0.25 -5.02002 3.03998 -9.16 7.63995 -9.41c2.16003 -0.100006 3.66003 1.26999 3.77002 3.42999zM706.7 315.86c0.209961 3.5 -3.16998 7.93002 -9.12 11.36c-1.35004 -1.38 -2.17004 -3.01001 -2.31 -5.35001
c-0.25 -5.01999 3.08997 -9.16 7.64996 -9.41c2.16003 -0.109985 3.67004 1.24002 3.78003 3.39999zM835.32 329.85c0.890015 -0.0700073 1.83997 -0.540009 2.26001 -1.45999c6.51001 -12.81 16.39 -23.84 23.43 -24.19c4.66998 -0.25 7.28998 2.47998 7.57001 7.67999
c0.279968 5.54999 -4.46002 11.04 -9.34003 11.29c-3.5 0.179993 -3.21997 -1.63 -5.45001 -1.49002c-1.44995 0.0700073 -2.62 1.31 -2.54999 2.83002c0.0400391 0.709991 0.350037 1.41998 0.98999 1.91998c0.320007 0.25 3.01001 2.36002 7.33002 2.14999
c8.23999 -0.419983 14.82 -8.72 14.4 -16.96c-0.390015 -7.35999 -5.39001 -13.25 -13.2401 -12.83c-11.0099 0.569977 -21.4399 14.12 -27.95 27.14c-0.25 0.460022 -0.320007 0.899994 -0.280029 1.36002c0.0700073 1.35001 1.20001 2.63 2.83002 2.56zM464.25 449.35
c5.06 -0.25 9.82001 -2.88 13.11 -6.38c1.42001 3.14999 4.32001 5.44 8.46002 5.23001c6.12 -0.320007 12.06 -4.25 15.99 -9.66c1.56 4.25 4.94 8.56998 10.95 8.25c4.59998 -0.25 8.57001 -1.62 15.15 -8.17001c3.08002 5.41 10.47 6.83002 16.31 6.51001
c8.88 -0.459991 25.83 -5.48999 25.19 -17.52c-0.109985 -2.34 -1.06 -3.53998 -1.16998 -5.34c-0.109985 -1.97998 5.72998 -3.00998 8.81 -3.14999c3.15002 -0.179993 5.66003 1.14001 6.65002 6.34c1.83997 9.52002 6.13 17.3 16.21 16.77h0.120056
c8.21997 -0.5 16.16 -7.41 21.43 -14.72c1.69995 6.89999 6.25995 13.27 15.21 12.81c10.4 -0.529999 16.83 -15.73 21.15 -28.15c0.039978 1.72998 0.0999756 3.60999 0.210022 5.40997c0.349976 6.65002 2.12 14.72 3.81995 19.53
c0.320007 0.950012 1.32001 1.81003 2.66003 1.74002c1.16998 -0.0700073 2.26001 -0.959991 2.53998 -2.13c1.48999 -6.29999 2.92999 -9.87 5.16003 -12.42c2.04999 -2.25998 5.56 -4.23999 11.47 -5.37c1.34003 -0.25 2.26001 -1.45999 2.19 -2.79999
c-0.0700073 -1.63 -1.40997 -2.64999 -2.83002 -2.58002l-0.380005 0.0299988c-9.62 1.84003 -14.87 5.84003 -18.02 12.81c-0.640015 -3.18002 -1.09003 -6.29001 -1.23004 -9.09003c-0.709961 -13.41 0.850037 -26.93 1.20001 -29.33l-0.039978 -0.459991
c-0.0700073 -1.35001 -1.22998 -2.66 -2.85999 -2.55002c-1.34003 0.0700073 -2.27002 1.09 -2.48004 2.12c-0.73999 3.53 -11.41 47.06 -22.78 47.82h-0.0599976c-7.33002 0.350006 -10.16 -5.76999 -10.69 -15.64
c-0.0700073 -1.45001 -1.41003 -2.61002 -2.83002 -2.54001c-0.98999 0.0700073 -1.94 0.700012 -2.37 1.66c-3.78998 8.66998 -13.62 18.05 -20.91 18.44h-0.110046c-6.02997 0.269989 -8.57001 -3.29001 -10.43 -12.39c-1.45001 -7.32001 -6.44 -11.04 -12.28 -10.72
c-3.92999 0.210022 -7.04004 1.27002 -8.81 1.91c-2.20001 0.809998 -5.34003 2.91 -5.13 6.94c0.139954 2.34 1.08997 3.57001 1.20001 5.34c0.319946 5.91 -11.03 11.36 -20.09 11.82c-7.01001 0.389984 -11.82 -1.76999 -12.07 -6.54999
c-0.279968 -5.80002 4.78003 -11.93 10.19 -12.21c1.59003 -0.109985 2.33002 -0.0699768 3.35999 0.430023c0.350037 0.179993 0.76001 0.25 1.15002 0.209991c1.31 -0.0700073 2.64001 -1.20001 2.52997 -2.83002c-0.139954 -3.07999 -4.73999 -3.35999 -7.31995 -3.22
c-8.56006 0.420013 -15.15 8.56 -15.36 16.77c-7.82001 8.48999 -10.33 8.88 -13.94 9.06c-4.41998 0.25 -6.55997 -4.89001 -6.87997 -11.33c-0.0700073 -1.44998 -1.41 -2.60999 -2.83002 -2.53998c-1.16998 0.0699768 -2.12 0.949982 -2.41 2.00998
c-1.97998 7.22 -9.06 12.99 -14.83 13.27c-2.23001 0.109985 -3.63998 -1.24002 -3.82001 -4.32001c-0.319977 -6.62 6.44 -14.68 12.74 -15.04c1.51999 -0.0700073 3.28998 0.920013 3.92999 2.41c0.429993 1.06 1.41 1.84 2.57999 1.76999
c1.63 -0.0699768 2.62 -1.48999 2.55002 -2.87c-0.0400085 -0.25 -0.100006 -0.549988 -0.210022 -0.799988c-1.48999 -3.82001 -5.26999 -6.10001 -9.12997 -5.92001c-8.28 0.460022 -15.44 7.98001 -17.42 16.01c-1.44 4.26001 -7.04999 9.57999 -12.7 9.91
c-7.31998 0.359985 -10.24 -5.76999 -10.77 -15.64c-0.0700073 -1.44998 -1.41 -2.62 -2.82999 -2.54999c-0.990021 0.0700073 -1.94 0.709991 -2.37003 1.67001c-3.78998 8.66998 -13.65 18.04 -20.94 18.43c-4 0.209991 -5.45001 -1.60001 -5.88 -9.56
c-0.110016 -2.44 0.139984 -8.42001 0.279999 -12.35c0.25 -5.73001 0.48999 -14.44 0.809998 -20.77c0.209991 -4.81003 0.359985 -7.96002 0.320007 -8.31003c-0.0700073 -1.62997 -1.27002 -2.71997 -2.79001 -2.64999c-1.34 0.0700073 -2.44 1.31 -2.55002 2.58002
c-0.779999 11.85 -1.69998 19.88 -3.60999 29.15c-1.70001 -1.06 -3.72 -1.48999 -5.76999 -1.38c-9.87003 0.5 -18.33 11.26 -17.83 20.74c0.279999 5.06 3.67999 9.73001 9.52002 9.41c3.26999 -0.169983 10.9 -1.42999 16.24 -16.13
c0.419983 8.14001 3.04001 15.14 11.57 14.68c8.28 -0.420013 16.27 -7.36002 21.58 -14.72c1.70001 6.89999 6.26999 13.27 15.22 12.81zM408.24 427.98c2.41 -0.140015 3.47 0.98999 3.54001 2.32999c0 0.350006 -0.290009 1.37 -0.25 2.01001
c-4.42001 13.83 -9.16 14.83 -11.5 14.94l-0.670013 0.039978c-2.25998 0.140015 -3.67999 -1.20999 -3.85999 -4.28998c-0.320007 -6.62 6.44 -14.71 12.74 -15.03zM453 405.8c-1.51999 0.0700073 -2.62 1.30002 -2.54999 2.86002
c0.0699768 1.51999 1.37997 4.38998 2.89999 4.32001c1.51999 -0.0700073 2.69 -1.31 2.62 -2.80002c-0.110016 -1.79999 -1.17001 -4.48999 -2.97 -4.38zM625.42 396.76c-1.51996 0.0699768 -2.62 1.31 -2.54999 2.87c0.0700073 1.51999 1.38 4.38 2.90002 4.31
c1.51996 -0.0700073 2.69 -1.29999 2.62 -2.79001c-0.109985 -1.79999 -1.17004 -4.5 -2.97003 -4.38998zM700.73 390.1c-1.51996 0.109985 -2.60999 1.31 -2.53998 2.82999c0.0700073 1.56 1.40997 4.49002 2.92999 4.38
c1.48999 -0.0700073 2.58002 -1.34 2.47003 -2.85999c-0.0700073 -1.80002 -1.09003 -4.42001 -2.86005 -4.35001zM745.82 408.52c-0.0700073 -0.98999 -0.75 -2.01999 -1.60004 -2.41c-0.569946 -0.25 -2.64996 -1.04999 -6.67999 -0.839996
c-8.27997 0.460022 -16.28 7.73001 -16.28 16.33c-2.97003 5.34 -8.96002 9.32999 -13.91 9.57999c-6.37 0.320007 -8.20996 -2.10001 -8.59998 -9.41998c-0.0700073 -1.63 -0.0700073 -5.17001 0.390015 -8.49002c0 -0.179993 0.0700073 -0.379974 0.0700073 -0.559998
c-0.0700073 -1.34 -1.23004 -2.66 -2.86005 -2.59c-1.23999 0.0700073 -2.29999 1.06 -2.47998 2.30002c-0.599976 3.92999 -0.599976 7.64999 -0.48999 9.62997c0.460022 8.77002 4.47998 15.02 14.25 14.53c5.65997 -0.279999 11.36 -3.45999 15.43 -8.16998
c2.76001 4.70999 8.46002 6.92999 14.23 6.60999c8.88 -0.459991 15.64 -6.95999 21.73 -12.59c6.29999 -5.79999 12.06 -10.79 18.43 -11.11c4.14001 -0.210022 7.35999 2.04999 7.60999 6.78998c0.25 4.74002 -3.82001 9.20001 -8.56 9.45001
c-1.38 0.0700073 -2.41998 -0.139984 -3.83002 -1.06c-0.459961 -0.320007 -1.13 -0.470001 -1.65997 -0.429993c-1.45001 0.0700073 -2.58002 1.31 -2.51001 2.82999c0.179993 3.33002 6.04999 4.17999 8.31 4.07001c7.82001 -0.420013 14.01 -7.35001 13.62 -15.14
c-0.419983 -7.81998 -6.58002 -12.28 -13.27 -11.93c-8.87994 0.459991 -15.64 6.97 -21.7599 12.6c-6.26001 5.79999 -12.02 10.79 -18.39 11.11c-6.02002 0.320007 -10.05 -2.50998 -10.3 -7.5c-0.280029 -5.40997 5.26996 -11.11 11.11 -11.43
c3.96002 -0.179993 3.64996 0.710022 5.38 0.640015c1.38 -0.110016 2.69 -1.17001 2.62 -2.80002zM457.96 537.03c-0.039978 -0.740051 -0.350006 -1.35004 -0.919983 -1.88c-2.16 -1.95001 -2.52002 -3.11005 -3.76001 -10.4
c-0.809998 -4.57001 -1.57999 -14.44 -9.32999 -14.05c-6.58002 0.349976 -8.71002 8.32001 -10.76 12.92c-2.72 6.26001 -4.53 9.51001 -6.04999 9.58002c0 0 -0.570007 0.140015 -1.03003 -2.19c-1.65997 -7.71002 -1.31 -20.16 -10.93 -19.67
c-6.89999 0.350006 -17.48 3.70999 -17.55 3.70999c-1.17001 0.320007 -2.02002 1.52002 -1.95001 2.69c0.140015 2.97003 3.76001 2.72003 4.11002 9.72998c0.319977 5.73004 -3.61002 10.05 -9.38 10.33c-5.51999 0.320007 -9.16 -3.35999 -9.48001 -9.33997
c-0.25 -5.24005 2.23001 -9.13 5.80002 -9.34003c3.60999 -0.179993 2.94 2.54999 5.56 2.41003c1.51999 -0.0700073 2.62 -1.48004 2.54999 -2.83002c-0.0400085 -0.460022 -0.220001 -0.960022 -0.540009 -1.41998
c-0.179993 -0.280029 -2.82999 -3.82001 -7.84998 -3.57001c-8.07001 0.419983 -11.22 8.56 -10.9 15.04c0.460022 8.32001 6.37003 14.93 15.15 14.47c8.62997 -0.429993 14.96 -7.42999 14.5 -16.03c-0.180023 -3.42999 -1.23001 -6.09003 -2.33002 -8
c3.47 -0.919983 9.03 -2.29999 12.57 -2.47003c6.54999 -0.359985 1.47 22.4301 12.01 21.9c6.54999 -0.349976 8.63998 -8.14001 10.69 -12.92c2.64999 -6.04999 4.56998 -9.48004 6.09 -9.59003c1.26999 -0.0700073 2.41 2.76001 3.67999 9.66003
c1.23999 6.89996 2.03 10.19 5.53 13.34c0.600006 0.530029 1.23001 0.790039 1.97 0.75c1.41998 -0.0700073 2.62 -1.40997 2.54999 -2.82996zM653.71 475.42c-1.34003 0.0699768 -2.27002 1.09 -2.48004 2.12c-0.73999 3.53998 -11.45 47.21 -22.84 47.81
c-0.890015 0.0400391 -2.70001 -0.649963 -3.09003 -7.89996c-0.349976 -6.58002 -1.33997 -13.47 -7.84998 -13.12c-5.66003 0.279999 -8.53003 6.05002 -11.57 11.25c-3.60999 5.90997 -5.70001 8.56 -7.22003 8.63c-1.09998 0.0700073 -2.19 -2.06 -3.60999 -8.32001
c-0.959961 -4.39001 -2.22998 -12.98 -9.20001 -12.63c-7.53998 0.389984 -15.0699 6.57999 -15.14 6.64999c-0.780029 0.600006 -1.09003 1.53 -1.06 2.34c0.109985 2.04999 1.40997 1.45001 1.58997 4.41998c0.320007 6.16003 -5.95996 12 -12.86 12.35
c-6.12 0.320007 -9.12 -1.59003 -9.40002 -6.72003c-0.279968 -5.90997 3.29004 -6.26001 3.15002 -9.13c-0.0700073 -1.44998 -1.31 -2.62 -2.76001 -2.54999c-0.710022 0.0299988 -1.35999 0.320007 -1.84998 0.779999c-0.5 0.570007 -16.31 17.26 -26.99 17.83
c-5.56006 0.280029 -8.13 -1.48999 -8.38 -5.83997c-0.280029 -5.41003 5.23999 -11.1 11.11 -11.42c3.03998 -0.140015 3.70001 0.170013 4.69 0.560028c0.179993 0.0699463 0.369995 0.0699463 0.549988 0.0699463c1.27002 -0.0699463 2.83002 -1.15997 2.71997 -2.85999
c-0.0299683 -0.919983 -0.48999 -1.88 -1.51996 -2.34c-0.460022 -0.179993 -2.69 -1.06 -6.72003 -0.850006c-8.52997 0.460022 -16.67 8.10999 -16.21 17.13c0.430023 8.14001 7.07999 11.28 14.05 10.93c8.34998 -0.459961 16.91 -6.75 22.82 -11.92
c0.5 8.63 7.28998 12.13 15.04 11.74c9.23999 -0.48999 18.43 -8.08997 17.94 -18.04c-0.0700073 -1.34003 -0.320007 -2.45001 -0.710022 -3.47003c2.41003 -1.65997 6.90002 -4.06 10.23 -4.23999c1.09998 -0.039978 2.19 2.05002 3.59998 8.38
c0.919983 4.34998 2.19 12.91 9.20001 12.56c5.65997 -0.279968 8.52997 -6.03998 11.57 -11.21c3.57001 -5.97998 5.70001 -8.59998 7.21997 -8.66998c0.640015 -0.039978 1.81 0.180023 2.20001 8c0.390015 7.08002 2.46002 13.34 8.76001 13.02
c10.4 -0.530029 16.81 -15.71 21.13 -28.13c0.039978 1.72998 0.109985 3.60999 0.210022 5.41c0.359985 6.64999 2.12 14.72 3.81995 19.53c0.320007 0.960022 1.34003 1.81 2.69 1.73999c1.17004 -0.0700073 2.23004 -0.950012 2.51001 -2.12
c1.48999 -6.29999 2.94 -9.87 5.16998 -12.42c2.05005 -2.26001 5.55005 -4.25003 11.46 -5.38c1.35004 -0.25 2.26001 -1.45001 2.19 -2.80002c-0.0700073 -1.63 -1.40997 -2.64999 -2.83002 -2.57999l-0.389954 0.039978c-9.62 1.84003 -14.86 5.83002 -18.01 12.8
c-0.640015 -3.17999 -1.10004 -6.29999 -1.23999 -9.08997c-0.710022 -13.41 0.859985 -26.92 1.20996 -29.33l-0.039978 -0.459991c-0.0700073 -1.34 -1.22998 -2.66 -2.85999 -2.54999zM702.15 506.18c0.25 4.32001 -5.07001 9.92999 -9.88 10.46
c-0.880005 -1.13 -1.42004 -2.51001 -1.52002 -4.39001c-0.25 -5.01999 3.04999 -9.19 7.60999 -9.44c2.16003 -0.109985 3.67999 1.20999 3.79004 3.37zM745 516.55c-2.58002 0.140015 -6.04999 -0.940002 -9.54999 -4.01996
c3.03998 -6.09003 6.42999 -9.32004 8.83997 -9.43002c3.33002 -0.179993 6.48004 3.29001 6.73004 7.78c0.169983 3.46997 -1.88 5.46002 -6.02002 5.66998zM726.21 535.65c1.16998 -0.0700073 2.25995 -0.990051 2.50995 -2.19
c0.920044 -4.74005 2.48004 -10.51 4.5 -15.78c3.96002 3.08002 8.24005 4.48999 12.0601 4.28003c6.29999 -0.320007 11.5 -4.48004 11.15 -11.34c-0.320007 -6.29999 -4.95001 -13.32 -12.42 -12.93c-5.52002 0.279999 -9.41998 5.20001 -12.39 10.58
c-4.64001 -5.79999 -7.91998 -10.05 -9.87 -10.94c-0.349976 -0.179993 -0.809998 -0.209991 -1.20001 -0.209991c-1.23999 0.0700073 -2.69 1.23999 -2.62 2.76001c0.0300293 0.350006 0.220032 0.779999 0.429993 1.23999c1.31 2.27002 1.73004 3.95999 1.87 6.86002
c0.350037 6.16 -6.87 12.91 -13.7 13.27c-2.97003 0.179993 -6.05005 -0.109985 -8.52002 -0.890015c5.15997 -2.69 9.85999 -8.23999 9.51001 -14.47c-0.25 -5.02002 -4.42004 -8.77002 -9.44 -8.49002c-7.96002 0.420013 -13.09 7.56 -12.7 15.13
c0.570007 10.65 11.21 14.66 21.44 14.1299c8.81 -0.459961 18.04 -7.95996 18.82 -17.19c0.959961 1.23999 2.22998 2.99997 3.39996 4.24002c-2.57996 6.15997 -4.44995 13.13 -5.62 18.7599c-0.0700073 0.180054 -0.039978 0.450012 -0.039978 0.630005
c0.0700073 1.34003 1.20001 2.62 2.83002 2.55005zM920.99 471.31c0.390015 7.36002 -4.25 19.15 -11.01 27.96c-0.25 -1.23999 -0.320007 -2.62997 -0.389954 -3.97c-1.27002 -24.7 5.13995 -30.88 7.39996 -30.99c1.79999 -0.109985 3.75 2.61002 4 7zM931.64 503.16
c-0.73999 0.0700073 -1.35004 0.320007 -1.88 0.889984c-3.96002 4.49002 -6.75 5.86002 -10.36 6.04001c-3.79004 0.209991 -5.95001 -1.44998 -7.54004 -4.63c8.48999 -9.69 15 -23.92 14.47 -34.43c-0.25 -4.56 -2.45001 -12.49 -9.63 -12.1
c-8.56 0.460022 -13.76 12.88 -12.52 36.66c0.169983 2.97 0.600037 5.94 1.45001 8.67001c-4.41998 4.38998 -9.13 7.03998 -13.2 7.25c-4.41998 0.25 -6.56 -4.89001 -6.88 -11.33c-0.0700073 -1.44998 -1.40997 -2.62 -2.83002 -2.54999
c-1.16998 0.0700073 -2.12994 0.959991 -2.40997 2.01999c-1.97998 7.22 -9.06 12.99 -14.83 13.27c-2.22998 0.110046 -3.63995 -1.23999 -3.82001 -4.31998c-0.319946 -6.62 6.44 -14.69 12.7401 -15.04c1.51996 -0.0700073 3.28998 0.920013 3.92999 2.41
c0.419983 1.06 1.40997 1.84 2.57996 1.76999c1.63 -0.0699768 2.62006 -1.48999 2.55005 -2.87c-0.0400391 -0.25 -0.100037 -0.529999 -0.210022 -0.779999c-1.47998 -3.82001 -5.27002 -6.12 -9.13 -5.94c-8.27997 0.459991 -15.43 7.95999 -17.41 15.99
c-1.45001 4.28 -7.17999 9.64001 -12.77 9.91998h-0.0900269c-3.19 0.150024 -5.52997 -0.609985 -6.88995 -14.55c-0.179993 -1.98001 -0.280029 -4.24002 -0.420044 -6.68002c-0.0700073 -1.23999 -1.22998 -2.62 -2.85999 -2.54999
c-1.41998 0.0700073 -2.51001 1.31 -2.54999 2.76001c0.140015 9.31 -3.60999 20.1 -10.62 20.45c-4.66998 0.25 -7.35999 -2.50998 -7.64001 -7.67999c-0.0700073 -1.63 -0.0700073 -5.12 0.390015 -8.48001c0 -0.179993 0.0700073 -0.359985 0.0700073 -0.539978
c-0.0700073 -1.34 -1.23999 -2.69 -2.83002 -2.58002c-1.20001 0.0700073 -2.22998 0.850006 -2.51001 2.05002c-1.87 7.45999 -6.69 20.03 -16.14 20.52c-7.56995 0.419983 -15.5099 -3.76001 -17.31 -22.69c4.32001 -0.570007 9.31 -1.20999 14.26 -1.45999
c1.45001 -0.0700073 2.62 -1.38 2.54999 -2.83002c-0.0699463 -1.44998 -1.38 -2.62 -2.82996 -2.54999c-5.03003 0.279999 -9.95001 0.779999 -14.37 1.35001c-0.140015 -9.38 1.88 -15.74 1.81 -16.91c-0.0700073 -1.34 -1.20001 -2.62 -2.83002 -2.54999
c-1.06 0.0699768 -2.13 0.849976 -2.47998 2.01999c-0.0700073 0.279999 -2.08002 8.59 -1.80005 18.36c-2.75995 0.490021 -6.29999 0.640015 -6.12 3.61002c0.0700073 1.59 1.48004 2.62 2.83002 2.54999c1.16998 -0.0700073 2.29999 -0.5 3.64001 -0.75
c2.15997 20.17 11.86 27.86 22.94 27.26c7.92999 -0.419983 13.09 -6.10999 16.24 -11.67c1.79999 5.31003 6.29999 8.67001 12.42 8.35001c6.02002 -0.279968 9.97003 -4.58997 12.34 -9.39999c1.90997 7.18002 5.70001 10.28 11.11 9.99997h0.0999756
c5.01001 -0.289978 9.70001 -2.89996 12.96 -6.37c1.41998 3.15002 4.32001 5.44 8.46002 5.23004c6.12 -0.320007 12.06 -4.23999 15.99 -9.65002c1.54999 4.25 4.94 8.56 10.96 8.23999c5.48004 -0.279968 10.72 -3.34998 15.28 -7.44998
c2.37 3.74997 6.37 6.31998 11.68 6.04001c5.38 -0.290039 9.54999 -2.84003 14.04 -7.86002c0.530029 -0.570007 0.780029 -1.22998 0.75 -1.94c-0.0699463 -1.44998 -1.40997 -2.62 -2.82996 -2.54999zM376.44 634.04c5.48001 -0.279968 10.74 -3.38995 15.3 -7.48999
c2.37 3.75 6.37 6.34003 11.68 6.06c5.37997 -0.279968 9.56 -2.83997 14.05 -7.85999c0.529999 -0.570007 0.769989 -1.23999 0.73999 -1.95001c-0.0699768 -1.45001 -1.41 -2.60999 -2.82999 -2.53998c-0.73999 0.0700073 -1.35001 0.309998 -1.88 0.880005
c-3.95999 4.48999 -6.75 5.87 -10.36 6.04999c-3.79001 0.210022 -5.95001 -1.41998 -7.54001 -4.59998c8.48999 -9.69 15 -23.95 14.47 -34.46c-0.25 -4.56 -2.44 -12.49 -9.62 -12.1c-8.56 0.459961 -13.77 12.87 -12.53 36.65
c0.179993 2.97003 0.599976 5.94 1.44998 8.66998c-4.38998 4.36005 -9.09 7.04004 -13.14 7.28003c-4.35001 0.210022 -6.59 -4.89001 -6.91 -11.33c-0.0700073 -1.33997 -1.23001 -2.64996 -2.86002 -2.53998c-1.16998 0.0700073 -2.13 0.909973 -2.41 2.01001
c-1.97998 7.17999 -9.06 12.96 -14.79 13.24c-2.27002 0.140015 -3.68002 -1.20001 -3.86002 -4.28003c-0.320007 -6.62 6.44 -14.72 12.74 -15.04c1.51999 -0.109985 3.28998 0.890015 3.88998 2.37c0.429993 1.09998 1.45001 1.84003 2.62 1.77002
c1.63 -0.0700073 2.66 -1.48999 2.59 -2.87c-0.039978 -0.25 -0.149994 -0.490051 -0.220001 -0.740051c-1.48999 -3.81995 -5.29999 -6.15997 -9.16 -5.94995c-9.87 0.48999 -18.33 11.26 -17.83 20.74c0.279999 5.06 3.67001 9.72998 9.51001 9.40997
c6.09 -0.320007 12.1 -4.32001 15.96 -9.65997c1.56 4.32001 4.95999 8.56 10.94 8.27997zM404.73 588.41c0.389984 7.36005 -4.25 19.15 -11.01 27.96c-0.25 -1.23999 -0.309998 -2.63 -0.380005 -3.96997c-1.26999 -24.7 5.13 -30.88 7.39001 -30.9901
c1.79999 -0.109985 3.75 2.61005 4 7zM716.63 595.46c0.25 4.32001 -5.06 9.90997 -9.87 10.44c-0.890015 -1.13 -1.41003 -2.52002 -1.52002 -4.39001c-0.25 -5.03003 3.03003 -9.16003 7.60004 -9.41003c2.15997 -0.109985 3.67999 1.20001 3.78998 3.36005zM750.71 609.9
c0.179993 3.32996 6.07996 4.17999 8.31 4.06995c6.12 -0.319946 10.53 -5.58997 10.18 -12.24c-0.419983 -7.70996 -5.65002 -15.04 -14.25 -14.58c-7.85004 0.419983 -13.37 7 -17.51 11.67c-4.25 4.71002 -11.82 11.46 -16.42 11.71
c-2.97003 0.179993 -6.05005 -0.100037 -8.53003 -0.880005c5.16003 -2.69 9.87 -8.24005 9.52002 -14.47c-0.25 -5.02002 -4.42999 -8.77997 -9.45001 -8.5c-7.96002 0.419983 -13.09 7.53998 -12.7 15.11c0.570007 10.65 11.21 14.69 21.44 14.16
c8 -0.419983 15.82 -8.85004 20.1 -13.59c4.34998 -4.77997 9.06 -9.54999 13.84 -9.79999c4.81 -0.25 8.23999 3.72003 8.56 9.45001c0.210022 4.09998 -2.19 6.39996 -5.06 6.53998c-1.34998 0.0700073 -2.40997 -0.0999756 -3.82001 -1.01996
c-0.459961 -0.350037 -1.09998 -0.5 -1.66998 -0.460022c-1.40997 0.0700073 -2.60999 1.31 -2.53998 2.83002zM782.24 610.07c-0.0700073 -1.52002 1.03003 -2.79999 2.54999 -2.87c1.77002 -0.109985 4.52002 0.679993 4.63 2.47998
c0.0700073 1.52002 -1.01996 2.76001 -2.57996 2.83002c-1.77002 0.109985 -4.49005 -0.630005 -4.60004 -2.44zM295.42 720.2c0.0299988 0.73999 0.309998 1.31 0.909973 1.83997c4.32001 3.92999 9.69 5.73004 16.56 5.34003
c7.70999 -0.390015 14.37 -2.73999 23.25 -7.84003c0.919983 -0.459961 1.44998 -1.45996 1.41998 -2.44995c-0.109985 -1.63 -1.48999 -2.62006 -2.84 -2.55005c-0.350006 0.0400391 -0.809998 0.140015 -1.16 0.350037c-8.53 4.88 -14.3 6.77997 -20.95 7.09998
c-5.76999 0.320007 -9.47998 -1.04999 -12.74 -3.90997c-0.570007 -0.5 -1.19998 -0.730042 -1.91 -0.700012c-1.44998 0.0700073 -2.60999 1.40002 -2.53998 2.82001zM303.52 702.68c-0.039978 -0.710022 -0.349976 -1.33997 -0.919983 -1.83997
c-1.41 -1.27002 -2.98001 -3.71002 -3.16 -6.97003c-0.279999 -5.97998 9.16998 -10.4 18.34 -10.86c4.32001 -0.25 8.67001 0.0999756 10.58 0.98999c0.350006 0.179993 0.780029 0.219971 1.13 0.219971c1.38 -0.109985 2.69 -1.23999 2.58002 -2.87
c-0.0299988 -0.98999 -0.710022 -1.94995 -1.63 -2.33997c-3.61002 -1.52002 -8.28 -1.63 -12.95 -1.38c-8.81 0.460022 -24.05 4.60999 -23.45 16.53c0.279999 4.85004 2.60999 8.49005 4.97998 10.65c0.529999 0.5 1.21002 0.710022 1.95001 0.669983
c1.42001 -0.0700073 2.62 -1.34998 2.54999 -2.79999zM315.19 720.06c1.28 -0.039978 2.20001 -1.02997 2.51999 -2.09003c0.0700073 -0.389954 0.77002 -4.34998 0.450012 -10.65c-0.570007 -10.79 -2.72 -17.52 -2.86002 -17.73
c-0.389984 -1.13 -1.47998 -1.84003 -2.64999 -1.77002c-1.63 0.0700073 -2.69 1.34998 -2.62 2.79999c0.0700073 1.16998 2.16 6.08002 2.72 16.98c0.320007 6.48004 -0.429993 8.88 -0.390015 9.87c0.0700073 1.38 1.20001 2.70001 2.83002 2.59003zM347.78 671.54
c-1.23999 0.0700073 -2.26001 0.990051 -2.51001 2.30005c-1.37997 9.33997 -1.69998 20.25 -1.16998 30.33c0.350006 6.65002 2.12 14.72 3.78 19.53c0.350006 0.950012 1.38998 1.79999 2.72998 1.72998c1.17001 -0.0700073 2.23001 -0.950012 2.51001 -2.12
c1.45001 -6.29999 2.89999 -9.87 5.17001 -12.42c2.04999 -2.26001 5.54999 -4.25 11.46 -5.38c1.34 -0.25 2.26001 -1.47998 2.19 -2.83002c-0.0700073 -1.63 -1.41 -2.62 -2.86002 -2.54999l-0.359985 0.039978c-9.62 1.84003 -14.89 5.79004 -18 12.8
c-0.640015 -3.17999 -1.10001 -6.28998 -1.23999 -9.08997c-0.5 -9.72998 -0.150024 -20.45 1.09 -29.26c0 -0.179993 0.039978 -0.349976 0.039978 -0.529968c-0.0699768 -1.35004 -1.19998 -2.66003 -2.82999 -2.55005zM388.99 667.55
c-0.809998 0.0700073 -1.62 0.460022 -2.12 1.20001c-2.62 4.03003 -5.97998 10.58 -8.41998 17.16c-0.180023 0.390015 -0.140015 0.780029 -0.140015 1.13c0.0700073 1.34003 1.20001 2.62 2.83002 2.55005c1.06 -0.0700073 2.04999 -0.75 2.43997 -1.77002
c2.30002 -6.22998 5.44 -12.59 7.78 -16.06c0.320007 -0.460022 0.460022 -1.13 0.460022 -1.66003c-0.110016 -1.41998 -1.31 -2.62 -2.83002 -2.54999zM404.5 722.61c0.890015 -0.0700073 1.84 -0.589966 2.26001 -1.51001c6.50998 -12.81 16.38 -23.8 23.42 -24.15
c4.67001 -0.25 7.30002 2.47998 7.58002 7.67999c0.279999 5.54999 -4.43002 11.04 -9.31 11.29c-3.5 0.179993 -3.25 -1.63 -5.48001 -1.48999c-1.45001 0.0700073 -2.62 1.31 -2.54999 2.83002c0.039978 0.709961 0.349976 1.41998 0.98999 1.91998
c0.320007 0.25 3 2.37 7.32001 2.16003c8.23999 -0.420044 14.83 -8.74005 14.41 -16.9901c-0.390015 -7.35999 -5.38 -13.24 -13.24 -12.81c-11.01 0.570007 -21.44 14.13 -27.95 27.15c-0.25 0.460022 -0.309998 0.909973 -0.279999 1.37
c0.0699768 1.34998 1.19998 2.62 2.82999 2.54999zM490.82 668.55c0 0.280029 0.109985 0.640015 0.220001 0.850037c4.03 9.54999 7.28 14.05 12.2 13.77c3.08002 -0.139954 5.07001 -2.22998 6.20001 -4.52997c1.26999 1.97998 1.70001 3.26001 3.67999 3.14996
c1.52002 -0.109985 2.60999 -1.51996 2.53998 -2.87c-0.039978 -0.529968 -0.139954 -1.02997 -0.529968 -1.48999c-0.0700073 -0.140015 -2.75 -3.23999 -5.69 -10.67c-0.420013 -1.03003 -1.45001 -1.82001 -2.62 -1.75c-1.63 0.0700073 -2.62 1.48999 -2.55002 2.83997
c0.0700073 1.63 1.24002 3.30005 1.77002 4.47003c-0.180023 0.279968 -0.460022 0.580017 -0.5 0.940002c-0.920013 3.67999 -2.01001 4.56 -2.54001 4.56c-0.459991 0.0299683 -2.82999 -0.559998 -7.04001 -10.47c-0.389984 -1.06 -1.53 -1.69995 -2.59 -1.63
c-1.63 0.0700073 -2.62 1.48004 -2.54999 2.83002zM715.09 743.2c-1.17004 0.0700073 -2.21002 0.880005 -2.53003 2.04999c-0.809998 3.40002 -2.48999 7.82001 -5.25 12.17c-0.349976 0.48999 -0.429993 0.98999 -0.390015 1.52002
c0.0700073 1.45001 1.31 2.65997 2.83002 2.59003c0.460022 -0.0400391 0.820007 -0.150024 1.16998 -0.360046c2.69 -1.48999 6.34003 -3.91998 9.91003 -6.26001c-0.570007 1.31 -1.38 2.76001 -1.31 4.28003c0.0700073 1.34998 1.19995 2.62 2.82996 2.54999
c1.17004 -0.0700073 2.12 -0.919983 2.44 -2.02002c0.960022 -3.60999 3.22003 -7.88995 6.83002 -11.89c0.5 -0.530029 0.77002 -1.20001 0.73999 -1.91003c-0.109985 -1.63 -1.48999 -2.62 -2.82996 -2.54999c-0.350037 0.039978 -0.820007 0.109985 -1.17004 0.320007
c-3.21997 1.90997 -7.67999 4.84998 -12.03 7.67999c0.709961 -1.77002 1.65997 -3.82001 1.56 -5.62c-0.0400391 -1.34998 -1.17004 -2.62 -2.79999 -2.54999zM750.31 744.99c-1.27997 0.0700073 -2.27002 1 -2.47998 2.31c-0.880005 5.70001 -1.13 13.97 -0.140015 32.93
c0.0700073 1.45001 1.38 2.66003 2.83002 2.55005c1.41998 -0.0700073 2.57996 -1.38 2.51001 -2.83002c-0.990051 -18.79 -0.700012 -26.71 0.039978 -31.88c-0.039978 -0.179993 0.0700073 -0.350037 0.0700073 -0.530029
c-0.0700073 -1.33997 -1.23999 -2.65997 -2.83002 -2.54999zM748.29 791.91c0.100037 1.80005 2.83002 2.55005 4.60004 2.48004c1.51996 -0.109985 2.62 -1.31 2.54999 -2.83002c-0.109985 -1.79999 -2.83002 -2.58002 -4.59998 -2.51001
c-1.52002 0.109985 -2.62006 1.34003 -2.55005 2.85999z" />
	</g>
	<g>
		<path id="textred" fill="#dc1414" d="M534.24 666.12c1.28003 -2.88 2.73999 -4.47998 3.90002 -4.53998c1.01001 -0.0599976 2.07001 0.75 2.83997 2.25c-2.44995 0.72998 -4.69 1.5 -6.73999 2.28998zM570.94 708.43c-2.07001 0 -3.37 -1.37 -3.53998 -4.32001
c-0.280029 -5.82996 4.92999 -12.77 10.48 -14.59c-3.06 6.97998 -5.28998 13.36 -6.94 18.91zM564.97 812.36c1.64001 2.76001 2.79004 5.96002 2.99005 9.70001c0.209961 4.07001 -2.15002 7.35999 -5.02002 7.5c-1.72998 0.109985 -2.75 -0.840027 -2.85999 -2.53998
c-0.230042 -4.52002 1.70996 -9.56 4.88995 -14.66zM688.07 773.93c2.76001 0.809998 4.52997 3.12 4.71997 6.48999c0.320007 6.32001 -5.16998 11.88 -11.85 12.31c1.72998 -5.57996 4.02002 -11.93 7.13 -18.8zM584.96 678.01
c-0.920044 0.039978 -1.78003 0.640015 -2.27002 1.45001c-0.73999 1.41998 -1.44 2.82001 -2.10999 4.19995h-0.730042c-8.27997 0.460022 -15.43 7.94 -17.41 15.97c-1.45001 4.27997 -7.17999 9.65002 -12.77 9.92999c-7.70996 0.419983 -17.58 -8.92999 -18.32 -23.33
c-0.269958 -5.16998 0.119995 -9.70996 0.860046 -13.43c2.76996 -1.26996 6.02997 -2.48999 9.94995 -3.64996c0.0700073 6.01996 -3.45996 13.46 -8.96997 19.59c-0.5 0.570007 -0.710022 1.20001 -0.669983 1.91003c0.0700073 1.44995 1.38 2.65997 2.82996 2.54999
c0.670044 -0.0400391 1.27002 -0.320007 1.80005 -0.850037c6.22998 -6.92999 10.79 -15.86 10.37 -24.1c-0.0100098 -0.169983 -0.0200195 -0.349976 -0.0400391 -0.530029c2.28003 -0.559998 4.76001 -1.10999 7.44 -1.63995
c1.35004 -0.25 2.27002 -1.45001 2.20001 -2.79999c-0.0700073 -1.63 -1.39001 -2.68005 -2.83997 -2.61005l-0.350037 0.0300293c-2.73999 0.529968 -5.27997 1.09998 -7.64996 1.69c-1.34003 -3.42999 -3.90002 -6.48004 -8.42004 -6.23999
c-5.63 0.289978 -8.97998 5.83997 -10.66 13.14c-1.54999 0.809998 -2.96002 1.64001 -4.26001 2.47003c-0.890015 0.459961 -1.28003 1.46997 -1.21002 2.39001c0.0700073 1.63 1.48999 2.60999 2.83002 2.53998c0.460022 -0.039978 0.890015 -0.169983 1.31 -0.419983
c0.0900269 -0.0599976 0.179993 -0.110046 0.27002 -0.170044c-0.320007 3.43005 -0.359985 6.99005 -0.190002 10.41c0.849976 16.21 11.97 29.1 24 28.46c5.06 -0.25 9.79999 -2.87 13.09 -6.37c1.17004 2.60004 3.36005 4.63 6.42999 5.13
c-0.459961 1.75 -0.869995 3.39001 -1.22998 4.90002c-0.109985 0.25 -0.0499878 0.539978 -0.0499878 0.820007c0.0700073 1.33997 1.20001 2.60999 2.83002 2.53998c1.16998 -0.0700073 2.22998 -0.849976 2.51001 -2.04999c0.5 -2.02002 1.06995 -4.27002 1.75 -6.71002
c4.31995 -1.16998 8.31 -3.88995 11.72 -7.48999c0.710022 2.40002 2.19 7.17999 5.15997 7c1.52002 -0.0700073 2.62006 -1.45001 2.55005 -2.78998c-0.0400391 -0.570007 -0.240051 -1.10004 -0.490051 -1.52002c-1.56 -2.02002 -2.54999 -5.02997 -2.75995 -9.13
c-0.0700073 -1.26996 -1.31 -2.64996 -2.83002 -2.58002c-0.809998 0.0700073 -1.48999 0.490051 -2.02002 1.13c-2.92999 4.07001 -6.13 7.04004 -9.34998 8.78003c1.57001 -4.89001 3.54999 -10.33 6.14001 -16.16c0.269958 0.300049 0.5 0.640015 0.659973 1.01001
c0.419983 1.06 1.41998 1.84003 2.59003 1.77002c1.63 -0.0700073 2.60999 -1.48999 2.53998 -2.87c-0.039978 -0.25 -0.119995 -0.539978 -0.22998 -0.789978c-0.670044 -1.73004 -1.81 -3.13 -3.21002 -4.15002c0.559998 -1.15002 1.14001 -2.32001 1.75 -3.5
c0.210022 -0.48999 0.320007 -0.919983 0.289978 -1.38c-0.0700073 -1.34003 -1.19995 -2.62 -2.82996 -2.54999zM662.85 652.3c-0.819946 0.0400391 -1.58997 0.450012 -2.08997 1.23004c-2.65002 4 -6.02002 10.59 -8.46002 17.21
c-0.179993 0.350037 -0.140015 0.710022 -0.140015 1.06c0.0700073 1.34003 1.20001 2.58002 2.83002 2.51001c1.10004 -0.0700073 2.03003 -0.710022 2.45001 -1.70001c2.29999 -6.26001 5.47998 -12.67 7.82001 -16.1
c0.320007 -0.460022 0.459961 -1.09003 0.419983 -1.62c-0.0700073 -1.45001 -1.31 -2.70001 -2.83002 -2.59003zM688.07 687.01c0.210022 3.5 -3.17999 7.92999 -9.12 11.36c-1.34003 -1.38 -2.16003 -3.02002 -2.29999 -5.34998
c-0.25 -5.02002 3.07996 -9.16003 7.64996 -9.41003c2.16003 -0.109985 3.66003 1.23999 3.77002 3.40002zM686.2 719.54c-1.79999 0.110046 -2.57001 2.83002 -2.46002 4.63c0.0700073 1.52002 1.33002 2.62 2.85004 2.54999
c1.79999 -0.109985 2.54999 -2.82996 2.44 -4.62994c-0.0700073 -1.52002 -1.31006 -2.62006 -2.83002 -2.55005zM696.19 669.47c-0.039978 -0.709961 -0.320007 -1.31 -0.890015 -1.79999c-2.47998 -2.22998 -2.64996 -3.44 -4.81 -7.19
c-1.09998 -1.90997 -3.02997 -4.97998 -6.75 -4.76996c-2.69 0.139954 -4.39001 1.95996 -5.97998 3.94c-2.47998 3.00995 -5.14001 7.26996 -6.45001 9.77997c-0.25 0.460022 -0.309998 0.919983 -0.309998 1.38c0.0700073 1.34003 1.23999 2.62 2.83002 2.54999
c0.919983 -0.0700073 1.79999 -0.630005 2.26001 -1.47998c1.16998 -2.12 3.69 -6.22998 5.81 -8.84998c1.40997 -1.80005 2.10999 -1.91003 2.10999 -1.91003c0.109985 0 0.640015 0.039978 1.73999 1.95001c1.79999 3.26001 2.77002 5.64996 5.95001 8.52002
c0.570007 0.529968 1.20001 0.769958 1.94 0.72998c1.41998 -0.0700073 2.65997 -1.40002 2.54999 -2.85004zM717.3 711.59c0.0300293 1.16998 0.98999 2.40997 1.06 3.57996c0.0700073 1.34003 -0.700012 3.42999 -4.95001 7.22003
c-0.599976 0.529968 -0.929993 1.26996 -0.889954 2.07996c0.0700073 1.52002 1.40997 2.62006 2.82996 2.55005c0.640015 -0.0400391 1.28003 -0.320007 1.70001 -0.73999c4.39001 -3.89001 6.94 -7.36005 6.73004 -11.39
c-0.140015 -2.62 -1.24005 -6.23004 -3.93005 -6.09003c-1.63 0.0700073 -2.62 1.44 -2.54999 2.79004zM765 659.57c-1.52002 0.0700073 -2.62 1.31 -2.54999 2.87c0.0700073 1.52002 1.38 4.39001 2.89996 4.32001c1.52002 -0.0700073 2.69 -1.31 2.62 -2.79999
c-0.109985 -1.80005 -1.16998 -4.5 -2.96997 -4.39001zM760.08 721.1c0.919983 -0.039978 1.94 -1 2.64996 -1.03998c1.10004 -0.0700073 1.75 0.400024 2.70001 1.28003c0.960022 0.849976 3.10999 2.90997 6.53998 2.72998
c2.69 -0.140015 4.96002 -1.71002 6.41003 -3.51001c0.419983 -0.570007 0.559998 -1.20001 0.529968 -1.84003c-0.0699463 -1.41998 -1.31 -2.60999 -2.82996 -2.53998c-1.73004 0.109985 -2.87 2.40002 -4.39001 2.51001
c-1.09998 0.039978 -1.77002 -0.460022 -2.69 -1.31s-3.12 -2.91003 -6.54999 -2.72998c-2.41003 0.139954 -5.33002 1.51996 -5.19 3.85999c0.0700073 1.56 1.46997 2.65997 2.82001 2.58997zM811.8 694.05c-0.140015 -2.89996 2.04999 -5.72998 6.54004 -7.70996
c0.25 0.879944 0.359985 1.83997 0.429993 2.82996c0.209961 4.10004 -2.19 6.41003 -5.06 6.54999c-1.10004 0.0700073 -1.84003 -0.609985 -1.91003 -1.66998zM820.25 648.58c-0.710022 0.039978 -1.34003 0.349976 -1.84003 0.919983
c-3.60999 3.96002 -7.15997 7.78003 -10.03 10.15c-2.19 1.72998 -3.31 2.32996 -3.66003 2.37c-0.529968 0 -0.98999 -0.140015 -1.56 -0.73999c-1.34998 -1.45001 -2.69 -4.64001 -3.42999 -8.39001c-0.25 -1.31 -1.45996 -2.26001 -2.79999 -2.19
c-1.52002 0.109985 -2.60999 1.38 -2.53998 2.83002c0.209961 4.31995 2.51001 8.87994 4.81 11.36c1.31 1.45001 3.46997 2.62 5.79999 2.51001c2.87 -0.180054 4.88 -1.91003 6.83002 -3.64001c3.35999 -2.76001 6.96997 -6.69 10.51 -10.69
c0.529968 -0.570007 0.779968 -1.21002 0.709961 -1.95001c-0.0700073 -1.41998 -1.38 -2.60999 -2.79999 -2.53998zM808.22 642.88c-1.79999 0.109985 -2.54999 2.85999 -2.43994 4.63c0.0699463 1.56 1.31 2.65997 2.82996 2.58997
c1.79999 -0.109985 2.54999 -2.87 2.44 -4.63995c-0.0700073 -1.56 -1.31 -2.65002 -2.83002 -2.58002zM847.6 672.32c0.0700073 1.09998 -0.569946 4.77997 -12.74 6.02002c1.03003 -4.81 4.04004 -8.25 8.10999 -8.46002c3.04004 -0.140015 4.56006 1.09998 4.63 2.44z
M857.83 695.22c-0.110046 -1.58997 -1.48004 -2.62 -2.83002 -2.54999c-0.179993 0 -0.460022 0.0300293 -0.640015 0.140015c-2.57996 0.73999 -3.12 0.950012 -5.63 1.06c-7.10999 0.390015 -12.81 -3.82001 -13.94 -10.12c13.16 -1.20001 18.51 -6.01001 18.19 -11.71
c-0.320007 -5.83997 -6.15997 -7.75 -10.3 -7.53998c-7.89001 0.429993 -12.38 7.40002 -13.3 14.23l-2.16003 0.110046h-0.0999756c-2.10999 0.109985 -4.14001 0.399963 -6.04999 0.849976c-2.41003 -3.40002 -6.45001 -5.63 -11.15 -5.38
c-7.85999 0.429993 -13.37 7.01001 -17.51 11.68c-4.22998 4.69 -11.78 11.43 -16.39 11.73h-0.0599976c-7.32001 0.350037 -10.15 -5.76996 -10.68 -15.64c-0.0700073 -1.45001 -1.42004 -2.62 -2.83002 -2.54999c-0.98999 0.0699463 -1.95001 0.699951 -2.37 1.65997
c-3.79004 8.66998 -13.62 18.05 -20.91 18.44c-6.12 0.320007 -8.69 -3.25 -10.57 -12.38c-1.40997 -7.32001 -6.42999 -11.04 -12.27 -10.72c-3.96002 0.209961 -7.04004 1.26996 -8.81 1.90997c-2.19 0.73999 -5.35004 2.96997 -5.14001 6.92999
c0.140015 2.33002 1.09998 3.58002 1.21002 5.34998c0.279968 5.38 -5.27002 11.04 -11.11 11.36c-2.89996 0.139954 -5.70996 -0.0700073 -8.07996 -0.73999c5.13 -3.61005 9.38 -8.66003 9.06 -14.61c-0.25 -5.01996 -4.39001 -8.77997 -9.45001 -8.52997
c-8 0.429993 -13.09 7.53998 -12.7 15.11c0.179993 2.83002 1.09998 5.40997 2.62 7.5c-3.92999 1.65997 -8.21002 2.65002 -12 2.85999c-7.35999 0.390015 -12.82 -4.16998 -13.1 -9.15997c-0.280029 -5.41003 3.14996 -9.21002 6.72998 -9.38
c1.16998 -0.0700073 2.44 0.75 3.60999 0.710022c1.34003 -0.0700073 2.69 -1.20001 2.58002 -2.83002c-0.140015 -2.69 -3.90002 -3.42999 -6.47998 -3.29004c-7.36005 0.390015 -12.2 7.5 -11.81 15.07c0.459961 8.77002 9.26996 14.8 18.75 14.3
c5.31 -0.290039 11.05 -1.91003 16.25 -4.35004c4.20996 2.29999 9.26996 3.01001 14.33 2.76001c8.56 -0.460022 16.64 -8.08002 16.18 -17.07c-0.109985 -2.33997 -1.06 -3.53998 -1.16998 -5.33997c-0.109985 -1.98004 5.79004 -3.01001 8.83002 -3.15002
c3.15002 -0.179993 5.67999 1.13 6.66998 6.29999c1.84003 9.52002 6.07001 17.34 16.15 16.81c8.27997 -0.419983 16.28 -7.37 21.59 -14.73c1.70001 6.89996 6.26001 13.27 15.21 12.81c7.98999 -0.419983 15.84 -8.87 20.12 -13.61
c4.34998 -4.78003 9.04999 -9.55005 13.83 -9.80005c2.19 -0.109985 3.92999 0.610046 5.38 1.88c-5.16003 2.44 -9.41003 6.83002 -9.13 12.7401c0.209961 3.92999 3.60999 7 7.53998 6.78998c6.12 -0.320007 10.54 -5.59003 10.19 -12.24
c-0.0700073 -1.42004 -0.359985 -2.87 -0.710022 -4.17999c1.34003 -0.25 2.69 -0.420044 4.07001 -0.490051h0.119995l1.75 -0.109985c1.38 9.66003 9.99005 15.72 19.61 15.19c3.32001 -0.179993 8.98999 -0.75 8.81 -4.08002zM837.18 662.99
c-1.58997 0.0700073 -2.76001 -1.20001 -2.83002 -2.53998c-0.039978 -0.460022 0.140015 -1 0.390015 -1.48999c2.04999 -3.67999 4.23999 -6.86005 8.16998 -7.04004c4.95001 -0.279968 6.99005 4.40002 8.33002 7.65002c0.140015 0.25 0.22998 0.599976 0.22998 0.880005
c0.0700073 1.33997 -0.919983 2.72998 -2.54999 2.83002c-1.09998 0.039978 -2.19 -0.600037 -2.57996 -1.70001c-1.56 -3.79004 -2.69 -4.36005 -3.15002 -4.32001c-0.530029 0 -1.72998 0.630005 -3.82001 4.34998c-0.48999 0.809998 -1.27002 1.34003 -2.19 1.38z
M850.16 652.41c0.710022 -0.039978 1.34003 -0.319946 1.84003 -0.919983c2.40002 -2.62 6.85999 -4.73999 6.58002 -10.33c-0.210022 -3.5 -3.14001 -6.15997 -6.61005 -5.97998c-2.87 0.140015 -5.77997 1.78003 -8.12 5.03003
c-0.349976 0.5 -0.549988 1.08997 -0.509949 1.72998c0.0699463 1.45001 1.26996 2.65997 2.78998 2.54999c0.809998 -0.039978 1.51001 -0.419983 2.03998 -1.06c1.66003 -2.33002 3 -2.76001 4.06 -2.83002c0.460022 -0.039978 0.940002 0.430054 0.980042 0.850037
c0.0299683 1.16998 -0.530029 2.01996 -1.56 2.96997c-1.38 1.23999 -2.69 2.47003 -3.61005 3.53003c-0.48999 0.570007 -0.75 1.20996 -0.709961 1.91998c0.109985 1.45001 1.38 2.60999 2.82996 2.53998zM283.76 811.75
c-0.140015 -2.96997 2.16 -5.84998 6.75998 -7.78998l0.0400085 0.25c0.279999 5.90997 -1.88 9.06 -4.88998 9.23999c-1.10001 0.039978 -1.84003 -0.640015 -1.91 -1.70001zM277.78 835.48c0.0700073 1.81 2.87 2.55005 4.64001 2.48004
c1.56 -0.110046 2.64999 -1.31 2.57999 -2.83002c-0.109985 -1.79999 -2.85999 -2.54999 -4.63 -2.47998c-1.56 0.109985 -2.69 1.31 -2.59 2.82996zM280.73 771.37c1.51999 -0.0700073 2.76999 1.03998 2.84 2.56c0.109985 1.79999 -0.670013 4.51001 -2.48001 4.62
c-1.51999 0.0700073 -2.73001 -1.01996 -2.79999 -2.53998c-0.110016 -1.79999 0.639984 -4.54004 2.44 -4.64001zM340.7 815.98c8.56 -0.459961 16.67 -8.06 16.21 -17.05c-0.110016 -2.33002 -1.06 -3.54999 -1.17001 -5.34998
c-0.109985 -1.98004 5.81 -3.01001 8.85001 -3.15002c3.14999 -0.179993 5.66 1.19 6.64999 6.35004c1.73001 8.91998 4.53 17.36 12.56 16.9399c4.07001 -0.209961 6.23001 -1.48999 6.12003 -3.92999c-0.0700073 -1.41998 -1.38 -2.62 -2.83002 -2.54999
c-1.69998 0.0700073 -1.19998 0.950012 -3.57001 1.06c-2.69 0.140015 -5.03 -2.78998 -6.97998 -12.56c-1.41 -7.32001 -6.39999 -11.04 -12.24 -10.72c-3.95999 0.209961 -7.06998 1.26996 -8.84 1.90997c-2.19 0.820007 -5.34 2.89001 -5.13 6.91998
c0.140015 2.34003 1.09003 3.60004 1.20001 5.37c0.279999 5.38 -5.26999 11.03 -11.11 11.35c-3.61002 0.210022 -6.34003 -0.910034 -7.40002 -21.22c-0.0699768 -1.41998 -1.37997 -2.63 -2.82999 -2.56c-1.51999 0.110046 -2.54999 1.49005 -2.54999 2.76001
c0.109985 9.13 -3.64001 20.09 -10.68 20.48c-4.66998 0.25 -7.29999 -2.54004 -7.57999 -7.71002c-0.0700073 -1.63 -0.0700073 -5.10999 0.359985 -8.47003c0 -0.179993 0.0299988 -0.369995 0.0299988 -0.549988c-0.0699768 -1.34998 -1.16 -2.65997 -2.78998 -2.58997
c-0.990021 0.0700073 -1.94 0.73999 -2.37003 1.69995c-1.03 2.26001 -2.29999 3.96002 -5.44998 4.14001c-1.73001 0.109985 -3.41 0.27002 -5 0.619995c-2.30002 -4.48999 -6.82001 -8.13995 -12.45 -7.82001c-11 0.570007 -21.44 14.12 -27.95 27.14
c-0.25 0.460022 -0.330002 0.919983 -0.289993 1.38c0.0699921 1.34998 1.2 2.62 2.82999 2.54999c0.880005 -0.0700073 1.85001 -0.570007 2.27002 -1.48999c6.50998 -12.81 16.38 -23.82 23.42 -24.17c2.69 -0.140015 5.21002 1.41998 6.87 4.03998
c-5.79999 2.41003 -10.83 6.85999 -10.51 13.23c0.209991 3.92999 3.63998 7.03998 7.60001 6.82996c7.67999 -0.429993 10.37 -8.31 10.02 -14.93c-0.0299988 -0.529968 -0.0700073 -0.98999 -0.209991 -1.52002c1.16998 -0.25 2.41 -0.409973 3.67999 -0.47998
c1.73001 -0.109985 3.07999 -0.419983 4.45999 -1.13l0.0700073 1.79999c0.389984 7.32001 5.41 13.2 13.27 12.81c6.05002 -0.319946 10.05 -4.5 12.42 -9.37994c1.81 7.10999 5.69998 10.23 11.04 9.94995zM323.96 771.83
c0.570007 -0.0300293 1.17001 -0.25 1.63 -0.600037c3.67999 -3.10999 7.54001 -7.45996 9.06 -10.15c0.290009 -0.460022 0.429993 -0.970032 0.390015 -1.5c-0.0700073 -1.38 -1.31 -2.71002 -2.83002 -2.61005c-0.880005 0.0400391 -1.66 0.430054 -2.16 1.28003
c-1.09998 1.79999 -4.70999 6.12 -7.92999 8.81c-0.709991 0.570007 -1.01999 1.41998 -0.949982 2.22998c0.0699768 1.52002 1.37 2.61005 2.78998 2.54004zM309.31 784.29c-1.59 0.0700073 -2.72 -1.19 -2.79001 -2.53998
c-0.039978 -0.25 0.0299988 -0.580017 0.140015 -0.859985c0.880005 -3.33002 3.39999 -6.51001 7.54001 -6.72003c2.97 -0.179993 5.37997 1.23999 7.22 3.29004c1.03 1.19995 1.87 1.58997 3.84998 1.47998c1.52002 -0.0999756 3.68002 -1.39001 5.17001 -2.97998
c0.5 -0.600037 1.13 -0.900024 1.84 -0.940002c1.45001 -0.0700073 2.72 1.12 2.79001 2.57001c0.039978 0.669983 -0.179993 1.27997 -0.670013 1.84998c-1.94998 2.19 -4.97998 4.71002 -8.84 4.91998c-3.42999 0.179993 -6.13 -1.01996 -8.10999 -3.28998
c-1.24002 -1.38 -1.98001 -1.63 -2.97 -1.56c-1.27002 0.0700073 -2.12003 0.669983 -2.76001 2.76001c-0.279999 1.09998 -1.23999 1.94995 -2.41 2.01996zM386.5 830.7c-0.0700073 -1.45001 -1.39001 -2.65002 -2.84 -2.58002c-9.94 0.530029 -25.05 1.41003 -30 2.51001
c-1.35001 0.25 -2.20001 1.52997 -2.13 2.79999c0.110016 1.63 1.5 2.60999 2.84 2.53998h0.459991c3.89001 -0.849976 19.36 -1.90997 29.12 -2.43994c1.44998 -0.0700073 2.62 -1.41003 2.54999 -2.83002zM461.95 809.63c4.94998 -0.25 10.25 -1.70001 15.1 -3.85999
c2.51001 1.83997 5.63 2.76001 9.17001 2.57996c3.85999 -0.209961 7.13 -1.02997 11.77 -3.60999c0.850006 -0.5 1.42001 -1.52002 1.39001 -2.51001c-0.0700073 -1.58997 -1.48999 -2.62 -2.80002 -2.54999c-0.389984 0.039978 -0.819977 0.150024 -1.16998 0.359985
c-4.10001 2.37 -6.17001 2.72003 -9.5 2.90002c-1.10001 0.0700073 -2.13 -0.0700073 -3.09 -0.25c5.76999 -3.75 10.71 -8.95001 10.36 -15.42c-0.25 -5.03003 -4.38 -8.78003 -9.44 -8.53003c-8 0.419983 -13.09 7.54004 -12.7 15.11
c0.179993 2.76001 0.919983 5.43005 2.19 7.73004c-3.86002 1.56 -7.96002 2.45001 -11.57 2.63c-7.70999 0.419983 -17.58 -8.92004 -18.32 -23.32c-0.779999 -14.89 3.92001 -24.53 6.79001 -24.67c1.79999 -0.109985 3.75 2.58002 4 6.97003
c0.320007 6.12 -3.25 13.87 -8.95001 20.2c-0.5 0.570007 -0.720001 1.20001 -0.679993 1.90997c0.0700073 1.45001 1.39001 2.66003 2.84 2.54999c0.670013 -0.039978 1.26999 -0.319946 1.80002 -0.849976c6.22998 -6.94 10.8 -15.85 10.37 -24.09
c-0.25 -4.56 -2.48001 -12.49 -9.66 -12.1c-9.70001 0.48999 -12.6 16.56 -11.89 30.36c0.850006 16.2 11.96 29.1 23.99 28.46zM454.48 821.73c-1.80002 0.110046 -2.55002 2.83002 -2.44 4.63c0.0699768 1.52002 1.31 2.62 2.82999 2.54999
c1.80002 -0.109985 2.55002 -2.83997 2.44 -4.63995c-0.0700073 -1.52002 -1.31 -2.61005 -2.82999 -2.54004zM487.81 787.55c0.209991 3.60999 -3.35999 8.10004 -9.66 11.67c-0.959991 -1.48999 -1.63 -3.40997 -1.76999 -5.63995
c-0.25 -5.02002 3.07001 -9.17999 7.63998 -9.42999c2.16 -0.110046 3.68002 1.23999 3.79001 3.39996zM473.65 758.55c-1.44998 0.0700073 -2.72 -1.09998 -2.79001 -2.54999c-0.0699768 -0.710022 0.180023 -1.34003 0.670013 -1.90997
c1.79999 -2.02002 4.64001 -4.67004 8.85001 -4.88c4.07001 -0.210022 6.60999 2.44 8.16998 4.16998c1.13 1.38 1.98001 1.58997 2.97 1.56c2.62003 -0.140015 4.57001 -1.47998 6.02002 -3.10999c0.529999 -0.570007 1.13 -0.850037 1.84 -0.890015
c1.44998 -0.0700073 2.76001 1.09998 2.82999 2.54999c0.0400085 0.710022 -0.179993 1.35004 -0.709991 1.91003c-1.95001 2.19995 -5.13 4.69995 -9.69 4.94995c-2.97 0.140015 -5.31 -1.26996 -7.22 -3.31995c-1.56 -1.73004 -2.57999 -2.48004 -3.92999 -2.41003
c-2.05002 0.109985 -3.55002 1.23999 -5.17999 3.08002c-0.5 0.529968 -1.12003 0.809998 -1.83002 0.849976zM474.65 777.41c-1.44998 0.0700073 -2.72998 -1.09998 -2.84 -2.54999c-0.0299988 -0.709961 0.179993 -1.33997 0.709991 -1.90997
c1.52002 -1.70001 4 -4.78003 6.69 -6.90002c1.73001 -1.34998 3.26001 -2.51001 5.52002 -2.64996c5.19998 -0.25 7.78 4.20996 11.07 9.94c0.210022 0.389954 0.320007 0.779968 0.360016 1.12994c0.0700073 1.38 -0.959991 2.80005 -2.55002 2.87006
c-0.98999 0.0699463 -2.01999 -0.530029 -2.50998 -1.38c-3.67999 -6.47003 -4.99002 -7.19 -6.05002 -7.15002c-0.109985 0 -1.09998 0.320007 -2.40997 1.34003c-2.12003 1.72998 -4.43002 4.48999 -6.16 6.37c-0.490021 0.570007 -1.12003 0.849976 -1.83002 0.889954z
M563.2 766.49c-0.0300293 -1.27002 -0.98999 -2.58002 -1.06 -3.98999c-0.140015 -2.27002 0.570007 -4.17999 3.32996 -5.31c1.03003 -0.429993 1.70001 -1.56 1.63 -2.62c-0.0699463 -1.63 -1.48999 -2.63 -2.82996 -2.56
c-0.280029 0.0299683 -0.640015 0.109985 -0.890015 0.219971c-5.03003 2.16003 -6.85999 6.48004 -6.65002 10.55c0.110046 2.50995 1.06 6.67999 3.92999 6.53998c1.63 -0.0700073 2.61005 -1.47998 2.54004 -2.83002zM612.57 779.22
c-0.039978 -0.25 -0.140015 -0.529968 -0.210022 -0.779968c-1.48999 -3.82001 -5.31 -6.15002 -9.16998 -5.94c-3.42999 0.179993 -6.57001 1.69 -9.37 3.64001c-7.19 5.19 -20.25 15.33 -29.29 26.98c-0.860046 -0.880005 -1.71002 -1.67999 -2.54004 -2.42999
c-4.81 -4.34998 -8.17999 -8.14001 -8.39001 -12.07c-0.25 -4.84998 2.83002 -8.22998 7.64001 -8.47998c1.88 -0.100037 3.26001 0.409973 4.42999 1.51001c0.570007 0.569946 1.29999 0.839966 2.01001 0.809998c1.52002 -0.0700073 2.62 -1.42004 2.54999 -2.83002
c-0.039978 -0.640015 -0.329956 -1.23999 -0.820007 -1.77002c-2.26996 -2.29999 -5.29999 -3.32996 -8.44995 -3.14996c-7.71002 0.389954 -13.13 6.47998 -12.7401 14.19c0.350037 6.82996 5.56006 11.5699 10.16 15.78c1 0.890015 2 1.87 2.96002 2.90002
c-4.24005 6.45001 -6.96002 13.19 -6.62006 19.73c0.25 4.57001 3.92004 7.88 8.48004 7.63c7.01001 -0.349976 10.46 -7.29999 10.18 -13.17c-0.309998 -5.78003 -2.41998 -10.43 -5.09998 -14.19c4.90997 -6.47003 11.33 -12.81 17.36 -18.03
c-0.210022 1.27002 -0.320007 2.44 -0.280029 3.67999c0.280029 5.06 3.64001 9.73999 9.48004 9.42004c5.76996 -0.280029 11.12 -3.44 15.54 -8.11005c0.669983 2.41003 2.19 7.17999 5.13 7.04004c1.52002 -0.0700073 2.60999 -1.48999 2.53998 -2.83002
c-0.039978 -0.570007 -0.25 -1.09003 -0.529968 -1.47998c-1.52002 -2.02002 -2.51001 -5.03003 -2.72003 -9.13c-0.0700073 -1.27002 -1.31 -2.66003 -2.83002 -2.59003c-0.779968 0.0400391 -1.48999 0.460022 -1.97998 1.10004c-4.81 6.64996 -10.3 10.33 -15.43 10.58
c-2.26001 0.140015 -3.67999 -1.19995 -3.85999 -4.27997c-0.320007 -6.62 6.45001 -14.72 12.75 -15.04c1.51996 -0.0699463 3.32001 0.890015 3.91998 2.37006c0.460022 1.09998 1.47998 1.84998 2.65002 1.81c1.58997 -0.110046 2.62 -1.49005 2.54999 -2.87006z
M601.61 759.97c0.710022 -0.039978 1.34003 -0.319946 1.84003 -0.879944c2.40997 -2.65002 6.89001 -4.78003 6.60999 -10.3701c-0.210022 -3.5 -3.15002 -6.15997 -6.65002 -5.97998c-2.89996 0.179993 -5.75995 1.77002 -8.12994 5.06
c-0.320007 0.460022 -0.530029 1.09003 -0.5 1.73004c0.0699463 1.44995 1.26996 2.62 2.78998 2.54999c0.809998 -0.0700073 1.52002 -0.460022 2.02002 -1.06c1.69995 -2.37 3.00995 -2.80005 4.10999 -2.87c0.459961 0 0.919983 0.429993 0.950012 0.849976
c0.039978 1.16998 -0.570007 2.02002 -1.56 3.01001c-1.38 1.23999 -2.69 2.46997 -3.61005 3.5c-0.48999 0.570007 -0.779968 1.20001 -0.73999 1.90997c0.109985 1.45001 1.41998 2.62 2.87 2.54999zM589.15 761.56c0.039978 0.599976 0.269958 1.23999 0.589966 1.65997
c3.67999 4.10004 8.04004 5.07001 11.37 4.89001c5.23999 -0.279968 10.34 -2.72998 14.16 -6.94c0.5 -0.599976 0.73999 -1.20001 0.669983 -1.94c-0.0700073 -1.40997 -1.34998 -2.62 -2.79999 -2.54999c-0.710022 0.039978 -1.32001 0.350037 -1.82001 0.919983
c-3.01001 3.29004 -6.66998 4.97003 -10.46 5.18005c-2.04999 0.109985 -4.58997 -0.440002 -7.14001 -3.20001c-0.569946 -0.570007 -1.27997 -0.920044 -2.08997 -0.890015c-1.52002 0.0700073 -2.54999 1.41998 -2.47998 2.87zM689.12 762.6
c-0.919983 0.0400391 -1.77997 0.640015 -2.27002 1.45001c-0.73999 1.41003 -1.44 2.79999 -2.10999 4.17999c-2.70996 0.190002 -8.72998 1.51001 -8.56 4.94c0.0700073 1.52002 1.48999 2.62 2.83002 2.54999c0.529968 -0.039978 1.06 -0.109985 1.47998 -0.5
c0.429993 -0.339966 0.890015 -0.629944 1.41003 -0.859985c-2.71002 6.23004 -4.73004 11.98 -6.30005 17.09c-1.94995 -1.29999 -3.16998 -3.51001 -3.31995 -6.32001c-0.0400391 -0.570007 0.0799561 -2.20001 0.539978 -3.53998
c0.0299683 -0.390015 0.130005 -0.670044 0.0999756 -1.02002c-0.0700073 -1.38 -1.23999 -2.63 -2.82996 -2.56c-0.990051 0.0700073 -1.94 0.709961 -2.33002 1.66998c-1.70001 3.85999 -7.06 14.12 -14.81 14.51c-5.95001 0.330017 -12.12 -2.17999 -15.38 -12.44
c4.81 -0.460022 9.16998 -0.75 12.87 -0.940002c1.45001 -0.0700073 2.62 -1.34998 2.51001 -2.79999c-0.0700073 -1.45001 -1.34003 -2.62 -2.79004 -2.54999c-4.00995 0.199951 -8.69 0.519958 -13.87 1.01996c-0.279968 -1.53998 -0.5 -3.19995 -0.669983 -4.98999
c4.32001 -0.570007 9.31 -1.20001 14.26 -1.45001c1.45001 -0.0700073 2.62 -1.38 2.54999 -2.82996c-0.0700073 -1.45001 -1.39001 -2.61005 -2.83997 -2.54004c-5.02002 0.280029 -9.94 0.77002 -14.36 1.34003c-0.139954 -9.38 1.87 -15.74 1.80005 -16.91
c-0.0700073 -1.33997 -1.20001 -2.62 -2.83002 -2.54999c-1.06 0.0700073 -2.12 0.850037 -2.47003 2.02002c-0.0700073 0.279968 -2.08997 8.58997 -1.81 18.36c-2.76001 0.5 -6.29999 0.640015 -6.12 3.60999c0.0700073 1.59003 1.48004 2.62 2.83002 2.55005
c1.16998 -0.0700073 2.31 -0.5 3.65002 -0.75c0.179993 1.64996 0.409973 3.21997 0.679993 4.70996c-1.40002 0.160034 -2.84003 0.350037 -4.30005 0.540039c-1.41998 0.179993 -2.39996 1.48999 -2.32996 2.82996c0.0700073 1.48999 1.38 2.61005 2.78998 2.54004
l0.179993 -0.0300293c1.66998 -0.22998 3.31 -0.429993 4.91998 -0.619995c3.86005 12.77 11.97 17.78 20.9901 17.29c6.82996 -0.349976 11.5 -5.01996 14.72 -9.29999c1.22998 2.90002 3.39001 5.14001 6.12 6.48004c-0.640015 2.33997 -1.16998 4.48999 -1.63 6.43994
c-0.109985 0.25 -0.0799561 0.530029 -0.0799561 0.810059c0.0699463 1.33997 1.20996 2.62 2.83997 2.54999c1.16998 -0.0700073 2.22998 -0.850037 2.51001 -2.04999c0.47998 -1.93005 1.02002 -4.07001 1.65997 -6.38c0.559998 0 1.13 0.0299683 1.71002 0
c9.40997 -0.490051 17.59 -8.24005 17.09 -18.01c-0.280029 -5.31 -3.33002 -9.41003 -7.76001 -11.1c0.409973 -0.829956 0.829956 -1.67999 1.26996 -2.51996c0.210022 -0.5 0.320007 -0.920044 0.280029 -1.38c-0.0700073 -1.34003 -1.19 -2.60999 -2.82001 -2.54004z
M678.22 761.35c0.180054 0 0.350037 -0.0699463 0.530029 -0.0699463c6.78998 -1.77002 12.35 -5.45001 15.32 -8.78003c0.48999 -0.570007 0.73999 -1.20001 0.700012 -1.90997c-0.0700073 -1.45001 -1.42004 -2.65002 -2.83002 -2.58002
c-0.73999 0.039978 -1.29999 0.349976 -1.87 0.919983c-2.09003 2.37 -7.01001 5.70001 -12.67 7.15002c-1.27002 0.349976 -2.09003 1.45001 -2.02002 2.71997c0.0700073 1.63 1.5 2.62 2.83997 2.54999z" />
	</g>
</svg>
