<?xml version="1.0" encoding="utf-8"?>
<!-- Pecita font preview © 2011 Philippe Cochy : reproduce open by keeping the signature of the author -->
<!DOCTYPE svg PUBLIC "-//W3C//DTD SVG 1.1//EN" "http://www.w3.org/Graphics/SVG/1.1/DTD/svg11.dtd" [
	<!ENTITY ns_svg "http://www.w3.org/2000/svg">
	<!ENTITY ns_xlink "http://www.w3.org/1999/xlink">
]>
<svg  version="1.1" id="Layer_1" xmlns="&ns_svg;" xmlns:xlink="&ns_xlink;" width="396" height="468" viewBox="0 0 396 468"
	 overflow="visible" enable-background="new 0 0 396 468" xml:space="preserve">
<title id="titre">Pecita font preview</title>
<g>
	<rect fill-rule="evenodd" clip-rule="evenodd" fill="#f7f9ee" width="396" height="312"/>       
	<rect y="312" fill-rule="evenodd" clip-rule="evenodd" fill="#feb285" width="396" height="156"/>
	<g>
   <path fill="#ff0000"
d="M122.87 27.97c0.0400009 0.25 0.199997 0.780001 0.469994 1.24c1.49 2.76 4.22 14.67 5.91 20.67c1.35001 4.8 3.81 8.77 7.11 8.19c1.83 -0.32 3.34001 -2.16 4.24001 -4.21c1.8 -4.09 5.70999 -10.76 11.28 -14.89c0.889999 -0.66 1.67999 -1.19 1.50999 -2.16
c-0.210007 -1.22 -0.929993 -1.72 -2.14999 -1.51c-0.490005 0.0900002 -1.19 0.41 -1.64 0.740002c-6.12 4.54 -10.39 11.71 -12.37 16.21c-0.460007 0.959999 -1.01999 2.07 -1.50999 2.16c-0.860001 0.150002 -2.33 -3.61 -2.84 -5.41
c-1.69 -6 -4.46001 -18.49 -6.34 -21.68c-0.540001 -0.91 -1.18 -1.68 -2.16 -1.51c-1.22 0.209999 -1.71999 0.940001 -1.50999 2.16zM176.77 51.58c-0.970001 0.169998 -1.82001 -0.310001 -2.15001 -1.51s-1.72 -2.22 -2.22 -2.57
c-0.639999 1.75 -4.34999 7.5 -11.18 8.71c-3.85001 0.68 -7.22 -1.68 -7.89999 -5.53c-1.14 -6.47 3.7 -13.25 10.17 -14.39c3.91 -0.689999 7.04999 0.649998 7.25999 1.87c0.220001 1.22 -0.289993 1.94 -1.50999 2.15
c-1.22 0.220001 -2.17001 -0.880001 -5.10001 -0.360001c-4.39 0.77 -7.93001 5.69 -7.16 10.08c0.320007 1.83 1.76001 2.83 3.59001 2.51c5.5 -0.970001 8.03 -5.55 8.75999 -7.13c0.740005 -1.51 0.349991 -2.58 1.56999 -2.8c1.22 -0.209999 2.45 1 3.89 2.01
c2.14999 1.51 3.28 3.58 3.49001 4.8c0.229996 1.28 -0.289993 1.94 -1.50999 2.16zM113.14 33.46c1.28 -0.23 3.3 0.860001 3.55 2.27c0.209999 1.22 -1.02 2.07 -2.12 2.26c-1.47 0.259998 -2.71 -1.09 -2.94 -2.37c-0.260002 -1.47 0.709999 -2.02 1.51 -2.16z
M88.2 63.42c10.13 -1.79 16.74 -8.62 24.07 -9.91c3.42 -0.599998 5.27 2.04 6.32 3.74c0.589996 0.900002 1.09 1.88 2.19 1.68c1.22 -0.209999 2.71 -1.03 3.4 -1.41l0.690002 -0.380001c0.339996 -0.18 0.569992 -0.289997 0.689995 -0.309998
c1.22 -0.220001 1.94 0.289997 2.16 1.51c0.150002 0.860001 0.0699997 1.44 -0.970001 2l-0.519997 0.279999c-1.21 0.650002 -3.10001 1.68 -4.81001 1.98c-3.05 0.540001 -4.71999 -1.43 -5.93999 -3.36c-0.709999 -1.13 -1.29 -2.3 -2.57 -2.07
c-6.96 1.23 -13.32 8.02 -24.06 9.91c-4.88 0.860001 -9.8 -1.99001 -10.66 -6.87c-1.29 -7.33 3.43999 -12.63 9.55 -13.71c2.38 -0.419998 6.91 -0.0800018 7.25 1.87c0.160004 0.919998 -0.479996 1.97 -1.50999 2.15
c-0.610001 0.110001 -0.730003 0.129997 -1.60001 -0.150002c-0.400002 -0.119999 -1.73 -0.52 -3.5 -0.209999c-4.39 0.77 -7.4 4.46 -6.54 9.34c0.580002 3.3 3.92 4.35 6.36 3.92zM51.62 66.6c-1.18 -6.72 3.14 -14.28 8.64 -15.25c3.78 -0.669998 7.11 1.07 7.79 4.92
c1.16 6.6 -6.98 12.19 -10.28 12.77c1.24 0.599998 3.28 1.06 6.94 0.409996c4.21 -0.739998 7.14 -2.33 8.18 -2.89l0.690002 -0.369995c0.339996 -0.18 0.579994 -0.300003 0.699997 -0.32c1.22 -0.209999 1.94 0.289993 2.15 1.50999
c0.150002 0.860001 0.0699997 1.44 -0.970001 2l-0.519997 0.280006c-1.72 0.93 -4.81001 2.61 -9.58 3.45c-3.97 0.699997 -12.43 0.939995 -13.74 -6.51zM55.28 65.95c4.88 -0.860001 9.71 -5.62 9.11 -9.04c-0.32 -1.83 -1.65 -2.22 -3.48 -1.9
c-3.3 0.580002 -6.49 6.06 -5.63 10.94zM24.85 57.59c1.29 7.33 3.94 15.93 5.99 19.72c0.559999 1.04 0.940001 1.72 2.16 1.51c1.22 -0.220001 1.68 -1.13 1.5 -2.16c-0.0499992 -0.300003 -0.189999 -0.660004 -0.369999 -1c-1.87 -3.45 -4.52 -12.5 -5.62 -18.72
c-1.29 -7.33 0.200001 -15.27 7.53 -16.56c4.39 -0.77 8.52 4.04 9.1 7.34c0.720001 4.09 -7.01 7.78 -11.51 9.71c-1.17 0.52 -1.68 1.19 -1.51 2.16c0.220001 1.22 0.939999 1.72 2.16 1.5c0.189999 -0.0299988 0.650002 -0.239998 0.940002 -0.349998
c4.46 -1.85 14.85 -6.46 13.58 -13.67c-0.900002 -5.13 -6.88 -11.5 -13.41 -10.35c-9.41 1.66 -12.2 11.46 -10.54 20.87z" />
   <path fill="#ffffff"
d="M310.75 205.77c-6.25 0 -9.75 -4.38 -9.75 -10.63c0 -3.75 3.25 -11.25 6.25 -11.25c2.5 0 3.75 1.25 3.75 3.75c0 3 -2.5 5 -2.5 7.5s1.12 3.75 2.5 3.75c2.5 0 3.75 -6.25 3.75 -11.25c0 -6.75 -4.37 -21.87 -5.87 -26.37
c-0.119995 -0.380005 -0.380005 -1.38 -0.380005 -2.38c0 -2.5 1.25 -3.75 3.75 -3.75c2 0 3 1.5 3.75 3.75c1.5 4.5 6.25 21.25 6.25 28.75c0 12.5 -4.75 18.13 -11.5 18.13zM304.75 223.89c0 2.5 -1.25 3.75 -3.75 3.75s-3.75 -1.25 -3.75 -3.75
c0 -12 -3.88 -14.87 -7.63 -17.37c-4.88 -3.25 -11.12 -6.63 -11.12 -16.38c0 -6 0.130005 -13.25 1.25 -20c0.380005 -2.25 1.75 -3.75 3.75 -3.75c2.5 0 3.75 1.25 3.75 3.75c0 0.75 -0.130005 1.25 -0.130005 1.25c-1.12 6.75 -1.12 15 -1.12 18.75
c0 6 3.75 7.63 7.5 10.13c2.38 1.62 11.25 5.37 11.25 23.62zM314.75 140.14c3.62 1.88 6.13 5 8.75 5c9 0 15 -3.75 15 -6.25s-1.25 -3.75 -3.75 -3.75c-2.38 0 -9 1.25 -10 1.25c-2.5 0 -3.75 -1.25 -3.75 -3.75c0 -2 1.25 -3.37 3.75 -3.87s7.5 -1.13 10 -1.13
c6.75 0 11.25 4.5 11.25 11.25c0 6 -7.5 13.75 -22.5 13.75c-6.75 0 -10 -6.25 -13.75 -6.25c-1.12 0 -1.75 3.5 -2.87 7.5c-1.5 5.25 -3.38 11.25 -9.63 11.25s-6.25 -3.75 -8.75 -3.75s-2.5 3.75 -8.75 3.75c-6.75 0 -7.5 -6.25 -10 -6.25c-2 0 -3.75 3.75 -8.75 3.75
c-6.75 0 -11.25 -8.25 -11.25 -11.25c0 -1 0.130005 -1.88 0.630005 -2.5c-0.5 -0.619995 -0.630005 -1.5 -0.630005 -2.5c0 -2.5 1.25 -3.75 3.75 -3.75c6.75 0 14.75 -5.75 19.75 -8.25c2.5 -1.25 4 -1.75 41.5 -1.75c2.5 0 3.75 1.25 3.75 3.75s-1.25 3.75 -3.75 3.75z
M288.5 153.89c6.25 0 6.25 3.75 8.75 3.75c0.880005 0 1.48999 -2.38 2.37 -5.5c1.12 -4.12 2.14001 -9.62 5.76001 -12c-25 0.119995 -27.88 0.630005 -29 1.13c-4.5 2.25 -12 7.5 -20 8.62c1.5 2.25 2.73999 5.25 4.62 5.25c2 0 3.75 -3.75 8.75 -3.75
c6.75 0 7.5 6.25 10 6.25s2.5 -3.75 8.75 -3.75zM328.5 122.64c-9 0 -20 -8.5 -22.5 -8.5s-8.13 4.75 -21.25 4.75c-2.5 0 -3.75 -1.25 -3.75 -3.75s1.25 -3.75 3.75 -3.75c11.88 0 16.25 -4.75 21.25 -4.75s15.75 8.5 22.5 8.5c2.5 0 3.75 1.25 3.75 3.75
s-1.25 3.75 -3.75 3.75zM268.5 116.39c0 -2.5 1.25 -3.75 3.75 -3.75s3.75 1.25 3.75 3.75c0 3.75 3.75 6.25 7.5 6.25c2.5 0 23.75 -1.25 31.25 -1.25c2.5 0 3.75 1.25 3.75 3.75s-1.25 3.75 -3.75 3.75c-6.75 0 -28.25 1.25 -31.25 1.25c-8 0 -15 -5.75 -15 -13.75z" />
   <path fill="#ffffff"
d="M222.5 127.64c-7.2 0 -13.5 0.399994 -18.5 0.399994s-25.8 -0.399994 -28.5 -0.399994c-1 0 -1.5 0.5 -1.5 1.5v32.9c0 5 0.5 11.4 0.5 14.1c0 1 0.5 1.5 1.5 1.5c2.7 0 8 -0.800003 13 -0.800003s28.5 0.800003 33.5 0.800003c1 0 1.5 -0.5 1.5 -1.5
c0 -12.5 -0.399994 -27.1 -0.399994 -32.1s0.399994 -12.2 0.399994 -14.9c0 -1 -0.649994 -1.5 -1.5 -1.5zM122.5 127.64c-7.2 0 -13.5 0.399994 -18.5 0.399994s-25.8 -0.399994 -28.5 -0.399994c-1 0 -1.5 0.5 -1.5 1.5v32.9c0 5 0.5 11.4 0.5 14.1c0 1 0.5 1.5 1.5 1.5
c2.7 0 8 -0.800003 13 -0.800003s28.5 0.800003 33.5 0.800003c1 0 1.5 -0.5 1.5 -1.5c0 -12.5 -0.400002 -27.1 -0.400002 -32.1s0.400002 -12.2 0.400002 -14.9c0 -1 -0.650002 -1.5 -1.5 -1.5zM172.5 177.64c-7.2 0 -13.5 0.399994 -18.5 0.399994
s-25.8 -0.399994 -28.5 -0.399994c-1 0 -1.5 0.5 -1.5 1.5v32.9c0 5 0.5 11.4 0.5 14.1c0 1 0.5 1.5 1.5 1.5c2.7 0 8 -0.800003 13 -0.800003s28.5 0.800003 33.5 0.800003c1 0 1.5 -0.5 1.5 -1.5c0 -12.5 -0.399994 -27.1 -0.399994 -32.1s0.399994 -12.2 0.399994 -14.9
c0 -1 -0.649994 -1.5 -1.5 -1.5zM172.5 77.64c-7.2 0 -13.5 0.400002 -18.5 0.400002s-25.8 -0.400002 -28.5 -0.400002c-1 0 -1.5 0.5 -1.5 1.5v32.9c0 5 0.5 11.4 0.5 14.1c0 1 0.5 1.5 1.5 1.5c2.7 0 8 -0.800003 13 -0.800003s28.5 0.800003 33.5 0.800003
c1 0 1.5 -0.5 1.5 -1.5c0 -12.5 -0.399994 -27.1 -0.399994 -32.1s0.399994 -12.2 0.399994 -14.9c0 -1 -0.649994 -1.5 -1.5 -1.5zM72.5 177.64c-7.2 0 -13.5 0.399994 -18.5 0.399994s-25.8 -0.399994 -28.5 -0.399994c-1 0 -1.5 0.5 -1.5 1.5v32.9c0 5 0.5 11.4 0.5 14.1
c0 1 0.5 1.5 1.5 1.5c2.7 0 8 -0.800003 13 -0.800003s28.5 0.800003 33.5 0.800003c1 0 1.5 -0.5 1.5 -1.5c0 -12.5 -0.400002 -27.1 -0.400002 -32.1s0.400002 -12.2 0.400002 -14.9c0 -1 -0.650002 -1.5 -1.5 -1.5z" />
   <path fill="#1a1a1a"
d="M193.97 91.28c1 1 2.01001 2.24 4.41 3.64c5.05 2.95 10.84 5.4 10.84 12.7v6c0 1 0.5 1.5 1.5 1.5s1.5 -0.5 1.5 -1.5v-6c0 -9.65 -8.34 -12.84 -12.34 -15.24c-1.14999 -0.699997 -2.76001 -2.25999 -3.76001 -3.25999s-1.59999 -1.5 -2.14999 -1.5
c-1 0 -1.5 0.5 -1.5 1.5c0 0.550003 0.5 1.16 1.5 2.16zM193.13 94.6c0 0.699997 -0.5 1.05 -1.5 1.55s-2.00002 1.05 -2.40001 1.45c-2.05 2.05 -4.2 6.7 -4.95 8.2c0.25 0.199997 0.550003 0.299995 0.850006 0.299995c0.550003 0 2.09999 -1.1 3.89999 -2.3
c1.95 -1.3 4.20001 -2.7 5.60001 -2.7c3 0 5 2 5 5c0 3.6 -3.15001 4.3 -4.35001 6.1c-1.60001 2.4 -2.54999 3.9 -3.14999 4.9s-0.949997 1.5 -1.5 1.5c-1 0 -1.5 -0.5 -1.5 -1.5c0 -0.550003 0.299988 -1.2 0.599991 -1.7c0.600006 -1 1.39999 -2.3 3 -4.7
s3.90001 -2.8 3.90001 -4.6c0 -1.3 -0.699997 -2 -2 -2c-0.550003 0 -2.20001 1.05 -3.95001 2.25c-1.95 1.3 -4.09999 2.75 -5.54999 2.75c-2.14999 0 -4 -1.7 -4 -3c0 -0.400002 0.0999908 -0.849998 0.299988 -1.25c0.5 -1 3.00002 -6.55 5.70001 -9.25
c0.699997 -0.699997 1.95 -1.5 3.2 -2.1c0.5 -0.25 1 -0.400002 1.3 -0.400002c1 0 1.5 0.5 1.5 1.5zM152.81 159.38c-2.02 0.229996 -5.27 0.519989 -8.08 0.679993c3.56 -3.55 4.92001 -4.8 6.29001 -4.8c0.789993 0 1.45 2.55 1.78999 4.12001zM140.02 161.66
c0 1 0.5 1.5 1.5 1.5c3.60001 0 10.9 -0.699997 13 -1c1.05 -0.149994 1.48999 -0.669998 1.48999 -1.5c0 -0.860001 -0.769989 -8.40001 -4.98999 -8.40001c-3.05 0 -5.10001 2.39999 -9.5 6.75c-0.899994 0.850006 -1.5 1.23001 -1.5 2.65001zM208.68 120.13
c-2.10001 0.300003 -9.39999 1 -13 1c-1 0 -1.5 -0.5 -1.5 -1.5s0.5 -1.5 1.5 -1.5c3.60001 0 10.5 -0.649994 12.6 -0.949997c0 0 0.199997 -0.0500031 0.399994 -0.0500031c1 0 1.5 0.5 1.5 1.5c0 0.800003 -0.449997 1.35 -1.5 1.5zM147.5 169.14
c-1.25 0 -3.14999 0.199997 -4.5 0.399994c-0.399994 0.0500031 -0.75 0.100006 -1 0.100006c-0.949997 0 -1.5 -0.5 -1.5 -1.5c0 -0.800003 0.699997 -1.39999 1.5 -1.5c2.05 -0.25 4.25 -0.5 5.5 -0.5c4 0 5.95 -0.5 6.95 -0.850006
c0.300003 -0.100006 0.900009 -0.149994 1.05 -0.149994c1 0 1.5 0.449997 1.5 1.45c0 0.800003 -0.449997 1.2 -1.5 1.55c-1.8 0.600006 -3.5 1 -8 1zM152.5 146.54c0 1.89999 -1.45 2 -3 2c-1.3 0 -2.5 -0.850006 -2.5 -2c0 -2 1 -3.39999 2.5 -3.39999
c1.64999 0 3 1.95 3 3.39999zM149.5 140.14c-3.39999 0 -5.5 2.79999 -5.5 6.39999c0 2.25 2.10001 5 5.5 5c4.39999 0 6 -2.39999 6 -5c0 -3.3 -2.95 -6.39999 -6 -6.39999zM56 168.64c-2.1 0.300003 -9.4 1 -13 1c-1 0 -1.5 -0.5 -1.5 -1.5s0.5 -1.5 1.5 -1.5
c3.6 0 10.5 -0.649994 12.6 -0.949997c0 0 0.200001 -0.0500031 0.400002 -0.0500031c1 0 1.5 0.5 1.5 1.5c0 0.800003 -0.450001 1.35001 -1.5 1.5zM33.5 135.34c1.05 0 2.6 1.65001 2.6 2.8c0 1 -1.2 1.5 -2.1 1.5c-1.2 0 -2 -1.75 -2 -2.8c0 -1.2 0.849998 -1.5 1.5 -1.5
zM44.5 136.14c1.05 0 2.5 1.35001 2.5 2.5c0 1 -1.2 1.5 -2.1 1.5c-1.2 0 -1.9 -1.45 -1.9 -2.5c0 -1.2 0.849998 -1.5 1.5 -1.5zM54.7 136.34c1.05 0 2.5 1.15001 2.5 2.3c0 1 -1.4 1.5 -2.3 1.5c-1.2 0 -1.9 -1.25 -1.9 -2.3c0 -1.2 1.05 -1.5 1.7 -1.5zM64.5 137.84
c1.05 0 2.4 1.05 2.4 2.2c0 1 -1.2 1.5 -2.1 1.5c-1.2 0 -1.8 -1.14999 -1.8 -2.2c0 -1.2 0.849998 -1.5 1.5 -1.5zM49.7 162.64c2 -0.5 3.08 -1.66 4.45 -3.95c2.1 -3.5 4.75 -8.64999 9.35 -10.95c0.400002 -0.199997 1.5 -0.800003 1.5 -1.60001
c0 -1 -0.5 -1.5 -1.5 -1.5c-0.200001 0 -0.5 0.0500031 -1.3 0.449997c-4.2 2.10001 -7 5.95 -9 9.25l-1.1 0.150009c1.3 -2.60001 3.45 -5.70001 4.35 -7.20001c0.299999 -0.5 0.549999 -1.09999 0.549999 -1.64999c0 -1 -0.5 -1.5 -1.5 -1.5
c-0.549999 0 -0.950001 0.5 -1.55 1.5c-1.09 1.8 -4.2 6.3 -5.45 9.35001c0 -1.2 0.700001 -5.95001 0.700001 -7.35001c0 -1 -0.150002 -2.7 -0.200001 -3c-0.0999985 -1 -0.5 -1.5 -1.5 -1.5s-1.5 0.5 -1.5 1.5c0 0.300003 0.200001 2 0.200001 3
c0 1.25 -0.550003 4.89999 -0.650002 6.7c-2.95 -2.2 -6.3 -8.2 -7.2 -9.7c-0.599998 -1 -0.849998 -1.5 -1.85 -1.5s-1.5 0.5 -1.5 1.5c0 0.300003 0.0499992 0.5 0.0499992 0.5c0.299999 1.5 1.3 3.39999 1.7 5c1 4 2.9 8.5 4.65 12c0.5 1 0.899998 1.5 2.1 1.5
c2.05 0 5 -0.699997 6.2 -1zM97.5 169.14c-1.25 0 -3.15 0.199997 -4.5 0.399994c-0.400002 0.0500031 -0.75 0.100006 -1 0.100006c-0.949997 0 -1.5 -0.5 -1.5 -1.5c0 -0.800003 0.699997 -1.39999 1.5 -1.5c2.05 -0.25 4.25 -0.5 5.5 -0.5c4 0 5.95 -0.5 6.95 -0.850006
c0.300003 -0.100006 0.900002 -0.149994 1.05 -0.149994c1 0 1.5 0.449997 1.5 1.45c0 0.800003 -0.449997 1.2 -1.5 1.55c-1.8 0.600006 -3.5 1 -8 1zM102.5 146.54c0 1.89999 -1.45 2 -3 2c-1.3 0 -2.5 -0.850006 -2.5 -2c0 -2 1 -3.39999 2.5 -3.39999
c1.65 0 3 1.95 3 3.39999zM99.5 140.14c-3.4 0 -5.5 2.79999 -5.5 6.39999c0 2.25 2.1 5 5.5 5c4.4 0 6 -2.39999 6 -5c0 -3.3 -2.95 -6.39999 -6 -6.39999zM102.79 159.35c-2.02 0.229996 -5.27 0.519989 -8.08 0.679993c3.56 -3.55 4.92 -4.78999 6.29 -4.78999
c0.790001 0 1.45 2.53999 1.79 4.11zM146.95 198.59c-0.899994 -1.95 -2.75 -3.39999 -4.95 -3.39999c-5 0 -8 3.5 -8 8.5c0 2.95 1.7 6.45 3.7 8.45c0.550003 0.550003 1 1 1.7 1c0.199997 0 0.350006 -0.0500031 0.75 -0.100006c2.8 -0.399994 11.7 -0.849991 15.3 -1.45
c6 -1 8.05 -4.54999 8.05 -7.89999c0 -4.60001 -4.39999 -7.3 -9 -7.3c-1.45 0 -3.10001 0.350006 -4.60001 0.850006c-0.100006 -1.5 -0.300003 -3.65001 -0.5 -4.35001c1.45 -0.149994 2.95 -0.25 4.05 -0.25c0.949997 0 1.5 -0.649994 1.5 -1.5
c0 -1 -0.550003 -1.5 -1.5 -1.5c-1.14999 0 -2.90001 0.150009 -4.55 0.300003c-0.199997 -1 -0.649994 -3.25 -0.649994 -3.8c0 -1 -0.5 -1.5 -1.5 -1.5s-1.5 0.5 -1.5 1.5c0 0.800003 0.449997 3.10001 0.649994 4.10001l-2.45 0.399994
c-1 0.149994 -1.5 0.600006 -1.5 1.5c0 1 0.5 1.5 1.5 1.5c0.149994 0 0.350006 -0.0500031 0.5 -0.0500031c0.300003 -0.0500031 1.2 -0.199997 2.5 -0.349991c0.25 0.949997 0.5 4.49998 0.5 5.34999zM147.5 201.19c1.5 0 3.85001 -1.8 7 -1.8c3 0 6 1.3 6 4.3
c0 2.7 -1.95 4.34999 -5.55 4.95s-13.15 1.14999 -15.15 1.39999c-1.60001 -1.75 -2.8 -4.49998 -2.8 -6.34999c0 -3.3 1.7 -5.5 5 -5.5c1.5 0 2.5 1.5 2.5 3c0 0.550003 -0.5 1 -0.5 2s0.5 1.5 1.5 1.5s2 -2 2 -3.5zM137.45 216.64c1 -0.199997 13.5 -1 21.5 -1
c1 0 1.5 0.5 1.5 1.5s-0.5 1.5 -1.5 1.5c-8 0 -20 0.800003 -21 1h-0.5c-1 0 -1.5 -0.5 -1.5 -1.5s0.5 -1.3 1.5 -1.5zM90 161.64c0 1 0.5 1.5 1.5 1.5c3.6 0 10.9 -0.699997 13 -1c1.05 -0.149994 1.5 -0.669998 1.5 -1.5c0 -0.860001 -0.779999 -8.39999 -5 -8.39999
c-3.05 0 -5.1 2.39999 -9.5 6.75c-0.900002 0.850006 -1.5 1.23 -1.5 2.64999z" />
   <path fill="#228a22"
d="M112.5 285.4c0 0.899414 -0.720703 1.7998 -1.80078 1.7998c-0.839844 0 -1.55957 -0.600586 -1.73926 -1.44043c-0.420898 -2.09961 -0.660156 -6.2998 -0.660156 -10.5596c0 -4.32031 0.419922 -8.40039 2.04004 -11.1006c1.5 -2.51953 4.01953 -4.5 8.75977 -4.5
c5.93945 0 13.2002 3.90039 13.2002 10.8008c0 7.61914 -5.81934 12.3594 -10.8604 16.3799c-3 2.39941 -6 4.7998 -8.2793 7.08008c-0.360352 0.359375 -0.780273 0.540039 -1.25977 0.540039c-0.960938 0 -1.80078 -0.84082 -1.80078 -1.80078
c0 -0.479492 0.179688 -0.899414 0.540039 -1.25977c2.52051 -2.51953 5.52051 -4.91992 8.52051 -7.32031c5.16016 -4.13965 9.53906 -8.03906 9.53906 -13.6191c0 -3.90039 -4.73926 -7.2002 -9.59961 -7.2002c-3.66016 0 -4.61914 1.01953 -5.63965 2.7002
c-0.900391 1.5 -1.55957 5.21973 -1.55957 9.2998c0 4.13965 0.239258 8.33984 0.539062 9.83984c0 0.120117 0.0605469 0.240234 0.0605469 0.360352zM142.38 284.98c3.23926 -1.62012 6.12012 -4.02051 6.12012 -6.18066c0 -1.43945 -0.960938 -2.39941 -2.40039 -2.39941
c-2.40039 0 -4.19922 2.51953 -4.19922 6c0 0.959961 0.179688 1.7998 0.479492 2.58008zM185.1 274.6c0.900391 0 1.80078 0.720703 1.80078 1.80078c0 0.719727 -0.419922 1.37988 -1.14062 1.67969c-0.120117 0.0595703 -6.17969 2.28027 -11.8203 10.1396
c-0.240234 0.360352 -0.839844 0.780273 -1.43945 0.780273c-0.540039 0 -1.08008 -0.299805 -1.44043 -0.780273c-0.179688 -0.239258 -3.36035 -4.7998 -3.36035 -13.6201v-1.01953c-3.7793 9 -9.71875 19.0195 -19.1992 19.0195
c-2.94043 0 -5.58008 -1.13965 -7.44043 -3.05957c-1.37988 0.540039 -1.37988 0.660156 -2.15918 0.660156c-0.900391 0 -1.80078 -0.719727 -1.80078 -1.7998c0 -1.26074 0.900391 -1.62012 1.98047 -1.98047c-0.480469 -1.25977 -0.780273 -2.58008 -0.780273 -4.01953
c0 -4.32031 2.39941 -9.60059 7.7998 -9.60059c3.36035 0 6 2.64062 6 6c0 4.5 -4.32031 7.37988 -7.43945 9.06055c1.01953 0.719727 2.33984 1.13965 3.83984 1.13965c13.5 0 20.5801 -31.9805 21.7197 -34.8604c0.299805 -0.719727 0.959961 -1.13965 1.68066 -1.13965
c1.13867 0 1.79883 1.01953 1.79883 1.86035c0 0.179688 -0.0595703 0.299805 -0.119141 0.479492c-0.480469 1.5 -2.28027 9.2998 -2.28027 19.2598c0 4.26074 0.839844 7.38086 1.55957 9.24023c5.75977 -6.89941 11.4609 -9.05957 11.6406 -9.12012
c0.179688 -0.0595703 0.419922 -0.120117 0.599609 -0.120117zM194.279 285.4c3.24023 -0.120117 7.02051 -3.7207 7.02051 -6.60059c0 -1.43945 -0.959961 -2.39941 -2.39941 -2.39941c-3.06055 0 -5.40039 2.63965 -5.40039 6c0 1.25977 0.299805 2.21973 0.779297 3z
M204.9 289c3.23926 0 8.21875 -7.67969 15.1191 -12.8398c2.51953 -1.91992 5.33984 -3.36035 8.88086 -3.36035c2.03906 0 3.89941 0.660156 5.45898 1.74023c3.96094 -6.83984 9.7207 -14.9404 14.9404 -14.9404c2.75977 0 4.2002 2.2207 4.97949 4.14062
c1.74023 4.31934 2.82031 11.2197 3.60059 17.2793c2.33984 -3.17969 6.23926 -4.61914 11.2197 -4.61914c0.959961 0 1.80078 0.839844 1.80078 1.7998s-0.84082 1.7998 -1.80078 1.7998c-7.5 0 -10.1992 3.12012 -10.1992 10.7998
c0 0.959961 -0.84082 1.7998 -1.80078 1.7998c-0.900391 0 -1.74023 -0.779297 -1.7998 -1.67969c0 0 -1.55957 -18.8398 -4.37988 -25.8604c-0.660156 -1.67969 -1.14062 -1.85938 -1.62012 -1.85938c-2.04004 0 -8.10059 6.59961 -12.2402 13.9199
c1.97949 2.51953 3.24023 5.7002 3.24023 8.87988c0 3.12012 -2.33984 6.59961 -6 6.59961c-3.18066 0 -4.7998 -3 -4.7998 -5.39941c0 -2.52051 1.32031 -5.75977 3.17969 -9.41992c-1.14062 -0.839844 -2.45996 -1.37988 -3.7793 -1.37988
c-2.46094 0 -4.44043 0.959961 -6.7207 2.63965c-5.58008 4.2002 -10.9199 13.5596 -17.2793 13.5596c-3.96094 0 -8.16016 -0.540039 -11.2207 -2.69922c-2.2793 -1.62012 -3.7793 -4.14062 -3.7793 -7.5c0 -5.04004 3.65918 -9.60059 9 -9.60059c3.35938 0 6 2.64062 6 6
c0 4.08008 -3.24023 7.68066 -6.78125 9.2998c1.91992 0.660156 4.32031 0.900391 6.78125 0.900391zM235.199 280.72c-1.37891 2.87988 -2.09961 5.40039 -2.09961 6.48047c0 1.2002 0.780273 1.7998 1.2002 1.7998c1.13965 0 2.39941 -1.32031 2.39941 -3
c0 -1.74023 -0.539062 -3.66016 -1.5 -5.28027zM294.3 277.6c0 0.900391 -0.719727 1.80078 -1.7998 1.80078c-0.780273 0 -1.44043 -0.540039 -1.67969 -1.26074c-0.360352 -1.01953 -1.5 -1.73926 -2.52051 -1.73926c-4.2002 0 -9 5.15918 -9 9.59961
c0 2.04004 0.899414 3 2.39941 3c3.24023 0 7.14062 -2.75977 10.6211 -7.13965c0.359375 -0.419922 0.839844 -0.660156 1.37891 -0.660156c1.02051 0 1.80078 0.959961 1.80078 1.7998c0 2.75977 0.539062 4.7998 1.5 6.17969
c0.179688 0.300781 0.299805 0.660156 0.299805 1.02051c0 0.899414 -0.780273 1.7998 -1.7998 1.7998c-0.599609 0 -1.14062 -0.240234 -1.5 -0.780273c-0.780273 -1.13965 -1.32031 -2.51953 -1.67969 -4.01953c-3.06055 3.05957 -6.66016 5.39941 -10.6211 5.39941
c-3.89941 0 -6 -3.23926 -6 -6.59961c0 -6.36035 6 -13.2002 12.6006 -13.2002c2.58008 0 5.04004 1.68066 5.87988 4.25977c0.0605469 0.180664 0.120117 0.360352 0.120117 0.540039zM318.84 286c-3.7207 1.91992 -7.5 3.59961 -10.4395 4.86035
c1.31934 0.359375 2.75977 0.540039 3.89941 0.540039c3.71973 0 6.60059 -2.04004 6.60059 -4.80078c0 -0.179688 0 -0.419922 -0.0605469 -0.599609zM329.279 275.56c5.75977 -4.19922 9.41992 -8.5791 9.41992 -12.3594c0 -3.12012 -1.31934 -4.7998 -3.59961 -4.7998
c-2.2793 0 -6 4.19922 -6 14.3994c0 0.959961 0.0605469 1.86035 0.179688 2.75977zM311.58 271.24c3.24023 -2.40039 5.51953 -6.41992 5.51953 -9.83984c0 -3.12012 -1.32031 -4.80078 -3.59961 -4.80078c-2.58008 0 -4.80078 3.36035 -4.80078 7.2002
c0 2.64062 1.14062 5.10059 2.88086 7.44043zM340.5 289c1.91992 0 4.7998 -0.599609 7.67969 -1.62012c-0.719727 -1.5 -1.08008 -3.17969 -1.08008 -4.97949c0 -5.04004 3.66016 -9.60059 9 -9.60059c3.36035 0 6 2.64062 6 6c0 4.32031 -3.83984 7.56055 -7.7998 9.78027
c0.719727 0.299805 1.5 0.419922 2.39941 0.419922c2.2207 0 3.60059 -0.179688 6.41992 -1.62012c0.240234 -0.120117 0.541016 -0.179688 0.78125 -0.179688c0.899414 0 1.79883 0.719727 1.79883 1.7998c0 0.660156 -0.419922 1.32031 -1.01953 1.62012
c-3.17969 1.55957 -5.40039 1.97949 -7.98047 1.97949c-2.45898 0 -4.61914 -0.779297 -6.23926 -2.21973c-3.47949 1.37988 -7.13965 2.21973 -9.95996 2.21973c-5.75977 0 -10.9805 -4.73926 -13.4404 -11.2197c-1.62012 1.02051 -3.2998 1.98047 -4.97949 2.87988
c0.240234 0.720703 0.419922 1.56055 0.419922 2.33984c0 5.64062 -5.51953 8.40039 -10.2002 8.40039c-3.36035 0 -7.74023 -1.01953 -9.66016 -2.87988c-0.239258 -0.240234 -0.540039 -0.780273 -0.540039 -1.32031c0 -0.719727 0.480469 -1.37988 1.14062 -1.67969
c3.35938 -1.37988 8.58008 -3.60059 13.9199 -6.2998c-1.56055 -2.04004 -4.08008 -4.37988 -6.41992 -6.95996c-1.56055 0.719727 -3.30078 1.13965 -5.04102 1.13965c-0.958984 0 -1.79883 -0.839844 -1.79883 -1.7998s0.839844 -1.7998 1.79883 -1.7998
c0.839844 0 1.74023 -0.180664 2.64062 -0.480469c-1.85938 -2.58008 -3.24023 -5.58008 -3.24023 -9.12012c0 -4.55957 2.58008 -10.7998 8.40039 -10.7998c4.91992 0 7.19922 4.32031 7.19922 8.40039c0 4.85938 -2.93945 9.59961 -6.83984 12.5996
c2.2207 2.40039 4.74023 4.74023 6.54102 7.13965c1.91992 -1.01953 3.7793 -2.21973 5.58008 -3.35938c-0.300781 -1.62012 -0.480469 -3.24023 -0.480469 -4.98047c0 -10.2002 3.48047 -18 9.59961 -18c4.91992 0 7.2002 4.32031 7.2002 8.40039
c0 6.2998 -5.63965 11.7598 -12.1201 16.2002c2.04004 6 6.48047 9.59961 10.3203 9.59961zM351.48 285.94c4.31934 -2.16016 7.01953 -4.98047 7.01953 -7.14062c0 -1.43945 -0.960938 -2.39941 -2.40039 -2.39941c-3.06055 0 -5.40039 2.63965 -5.40039 6
c0 1.37988 0.300781 2.58008 0.78125 3.54004z" />
   <path fill="#1a1a1a"
d="M54.95 396c0 0.799988 -0.700001 1.5 -1.5 1.5c-0.400002 0 -0.75 -0.149994 -1.05 -0.450012c-1.9 -1.89999 -2.45 -4.34998 -2.45 -7.04999c0 -4.35001 -0.650002 -4.5 -1 -4.5c-0.850002 0 -2.1 1.39999 -4.25 4.60001c-1.85 2.79999 -3.6 5.89999 -6.75 5.89999
c-3.65 0 -4 -3.85001 -4 -7.5c0 -4.14999 -0.650002 -4.5 -1.5 -4.5c-0.900002 0 -1.85 0.75 -3.65 4.39999c-0.549999 1.10001 -1.25 2.10001 -2.3 3.14999c-0.299999 0.300018 -0.65 0.450012 -1.05 0.450012c-0.800001 0 -1.5 -0.700012 -1.5 -1.5
c0 -0.399994 0.15 -0.75 0.449999 -1.04999c0.85 -0.850006 1.25 -1.45001 1.7 -2.35001c1.7 -3.35001 3.25 -6.10001 6.35 -6.10001c3.75 0 4.5 3.64999 4.5 7.5c0 4.35001 0.649998 4.5 1 4.5c0.849998 0 2.1 -1.39999 4.25 -4.60001
c1.85 -2.79999 3.6 -5.89999 6.75 -5.89999c3.65 0 4 3.85001 4 7.5c0 2.29999 0.450001 3.85001 1.55 4.95001c0.299999 0.299988 0.450001 0.649994 0.450001 1.04999zM61.25 385c0.849998 0 1.45 0.700012 1.45 1.45001c0 1.29999 -0.75 0.75 -0.75 3.04999
c0 2.79999 1.95 5 4.5 5c3.75 0 7 -2.95001 7 -6.5c0 -2.35001 -1.45 -4 -3.5 -4c-1.2 0 -2.3 0.399994 -2.95 1.04999c-0.300003 0.300018 -0.650002 0.450012 -1.05 0.450012c-0.799995 0 -1.5 -0.700012 -1.5 -1.5c0 -0.399994 0.150002 -0.75 0.450005 -1.04999
c1.35 -1.35001 3.25 -1.95001 5.05 -1.95001c3.95 0 6.5 3.35001 6.5 7c0 5.45001 -4.75 9.5 -10 9.5c-4.45 0 -7.5 -3.79999 -7.5 -8c0 -2.35001 0.849998 -3.60001 1.05 -3.89999c0.299999 -0.350006 0.799999 -0.600006 1.25 -0.600006zM91.95 395.5
c0 -0.899994 0.75 -1.5 1.5 -1.5c0.200005 0 0.450005 0.0499878 0.650002 0.149994c0.300003 0.149994 0.800003 0.350006 1.85 0.350006c2.3 0 4 -2.39999 4 -5.5c0 -3 -1.55 -5 -4 -5c-3.8 0 -9 6.29999 -10.5 29.1c-0.0499954 0.799988 -0.75 1.39999 -1.5 1.39999
c-0.899994 0 -1.5 -0.850006 -1.5 -1.5c0 -15 -0.649994 -22.45 -1.85 -24.85c-0.0999985 -0.199982 -0.150002 -0.449982 -0.150002 -0.649994c0 -0.75 0.600006 -1.5 1.5 -1.5c0.550003 0 1.10001 0.350006 1.35001 0.850006c0.899994 1.79999 1.3 4.25 1.64999 8.19998
c2.35001 -9.29999 6.10001 -14.05 11 -14.05c4.55 0 7 4 7 8c0 3.89999 -2.3 8.5 -7 8.5c-1.45 0 -2.45 -0.299988 -3.14999 -0.649994c-0.5 -0.25 -0.850006 -0.800018 -0.850006 -1.35001zM123.95 413c0 0.75 -0.599998 1.5 -1.5 1.5
c-0.549995 0 -1.1 -0.350006 -1.35 -0.850006c-1.15 -2.35001 -1.65 -5.44998 -1.65 -8.14999c0 -2.45001 0.450005 -5.95001 0.800003 -11.95c-2.5 2.30002 -5.25 3.95001 -8.3 3.95001c-3.25 0 -5 -2.70001 -5 -5.5c0 -5.29999 5 -11 10.5 -11
c2.15 0 4.2 1.39999 4.9 3.54999c0.0500031 0.150024 0.0999985 0.300018 0.0999985 0.450012c0 0.75 -0.599998 1.5 -1.5 1.5c-0.649994 0 -1.2 -0.450012 -1.39999 -1.04999c-0.300003 -0.850006 -1.25 -1.45001 -2.10001 -1.45001c-3.5 0 -7.5 4.29999 -7.5 8
c0 1.70001 0.75 2.5 2 2.5c2.7 0 5.85001 -2.29999 8.85001 -5.95001c0.299995 -0.349976 0.699997 -0.549988 1.1 -0.549988c0.75 0 1.55 0.600006 1.55 1.5c0 8.79999 -1 13.4 -1 16c0 2.29999 0.5 5.20001 1.35001 6.85001
c0.0999985 0.199982 0.149994 0.449982 0.149994 0.649994zM131.45 388c0 0.75 -0.599991 1.5 -1.5 1.5c-0.599991 0 -1.2 -0.399994 -1.39999 -1s-0.600006 -1.39999 -0.600006 -2.5c0 -3.60001 4.85001 -5 8.5 -5c3.25 0 5.90001 2.20001 6.5 6.29999
c0.800003 5.5 2 7.20001 3.5 7.20001c1.35001 0 1.05 -0.5 2 -0.5c0.800003 0 1.5 0.700012 1.5 1.5c0 0.350006 -0.149994 0.75 -0.449997 1.04999c-0.300003 0.300018 -1.2 0.950012 -3.05 0.950012c-4.5 0 -5.8 -4.79999 -6.5 -9.79999
c-0.399994 -2.90002 -1.75 -3.70001 -3.5 -3.70001c-1.55 0 -5.5 0.600006 -5.5 2c0 0.399994 0.100006 0.700012 0.400009 1.5c0.0499878 0.149994 0.0999908 0.350006 0.0999908 0.5zM163.95 394.95c0 -0.850006 0.699997 -1.45001 1.5 -1.45001
c0.350006 0 0.699997 0.149994 0.900009 0.299988c0.25 0.200012 0.899994 0.700012 2.09999 0.700012c2.7 0 5.5 -2.89999 5.5 -6c0 -2.89999 -1.39999 -4.5 -4 -4.5c-3.84999 0 -9.2 5.75 -13.2 12.75c-0.25 0.5 -0.800003 0.75 -1.3 0.75
c-0.899994 0 -1.5 -0.75 -1.5 -1.5c0 -0.25 0.0500031 -0.5 0.199997 -0.75c4 -7 9.65001 -14.25 15.8 -14.25c4.40001 0 7 3.39999 7 7.5c0 4.60001 -3.89999 9 -8.5 9c-2.39999 0 -3.75 -1.20001 -4 -1.39999c-0.300003 -0.300018 -0.5 -0.700012 -0.5 -1.14999z
M183.95 367.5c0.900009 0 1.5 0.75 1.5 1.5c0 0.100006 -0.0500031 0.200012 -0.0500031 0.299988c-0.949997 4.85001 -1.45 10.8 -1.45 16.2c0 1.54999 0.150009 3.29999 0.400009 5.10001c1.95 -3.80002 5 -5.85001 10.4 -6.60001h0.199997
c0.800003 0 1.5 0.600006 1.5 1.5c0 0.75 -0.550003 1.39999 -1.3 1.5c-3.29999 0.450012 -5.29999 1.45001 -6.5 2.64999c-1.34999 1.35001 -2.25 3.30002 -3.25 6.75c-0.199997 0.649994 -0.799988 1.10001 -1.45 1.10001c-0.75 0 -1.3 -0.5 -1.45 -1.04999
c-0.800003 -2.70001 -1.55 -7.25 -1.55 -10.95c0 -5.60001 0.5 -11.65 1.55 -16.8c0.149994 -0.700012 0.75 -1.20001 1.45 -1.20001zM223 393c0.800003 0 1.45 0.75 1.45 1.5c0 0.350006 -0.149994 0.700012 -0.349991 0.950012
c-0.150009 0.149994 -1.60001 2.04999 -4.15001 2.04999c-3.14999 0 -4.55 -2.95001 -5.2 -5.29999c-1.3 2.64999 -3.55 5.29999 -7.3 5.29999c-4.39999 0 -7 -3.39999 -7 -7.5c0 -3.20001 0.550003 -4.79999 0.600006 -5c0.25 -0.649994 0.800003 -1 1.39999 -1
c0.900009 0 1.5 0.75 1.5 1.5c0 0.799988 -0.5 1.25 -0.5 4.5c0 2.89999 1.40001 4.5 4 4.5c5.10001 0 6.45 -9.89999 6.5 -10.7c0.100006 -0.649994 0.699997 -1.29999 1.5 -1.29999s1.5 0.700012 1.5 1.5c0 4.75 0.900009 10.5 3 10.5
c0.850006 0 1.7 -0.799988 1.90001 -1c0.25 -0.299988 0.699997 -0.5 1.14999 -0.5zM250.45 384.5c0 0.75 -0.599991 1.5 -1.5 1.5c-0.550003 0 -1.09999 -0.350006 -1.34999 -0.850006c-0.450012 -0.899994 -0.850006 -1.14999 -1.15001 -1.14999
c-0.75 0 -2.05 1.45001 -3.09999 4.04999c-1.40001 3.45001 -3.5 9.45001 -8.40001 9.45001c-5 0 -6.5 -7.5 -6.5 -12c0 -0.799988 0.650009 -1.5 1.5 -1.5c0.75 0 1.40001 0.600006 1.5 1.35001c0.550003 5.54999 1.8 9.14999 3.5 9.14999
c2.10001 0 4 -3.5 5.60001 -7.54999c0.949997 -2.40002 2.64999 -5.95001 5.89999 -5.95001c2.2 0 3.3 1.75 3.85001 2.85001c0.0999908 0.199982 0.149994 0.449982 0.149994 0.649994zM288.45 388.5c0 0.75 -0.650024 1.5 -1.5 1.5
c-1.25 0 -1.80002 -1.45001 -2.15002 -2.35001c-2.5 3.80002 -6.54999 7.35001 -10.35 7.35001c-3.10001 0 -4.55002 -2.95001 -4.90002 -5.70001c-2.44998 4 -5.64999 8.20001 -9.59998 8.20001c-4.20001 0 -5.50002 -4.64999 -5.50002 -7.5
c0 -1.54999 0.100006 -4.10001 0.550003 -6.29999c0.149994 -0.700012 0.75 -1.20001 1.45001 -1.20001c0.899994 0 1.5 0.75 1.5 1.5c0 0.100006 -0.0500183 0.200012 -0.0500183 0.299988c-0.350006 1.80002 -0.449982 4.25 -0.449982 5.70001
c0 2.64999 1.19998 4.5 2.5 4.5c2.59998 0 7.09998 -5.95001 9.64999 -11.6c0.25 -0.5 0.75 -0.899994 1.35001 -0.899994c0.799988 0 1.5 0.700012 1.5 1.5v4c0 3.45001 1.19998 4.5 2 4.5c2.89999 0 8.64999 -5.39999 9.54999 -9.79999
c0.149994 -0.650024 0.75 -1.20001 1.45001 -1.20001c0.799988 0 1.5 0.700012 1.5 1.5c0 2.29999 0.449982 4 1.25 5.14999c0.149994 0.25 0.25 0.550018 0.25 0.850006zM301.75 390.5c1.85001 1.79999 3.75 2.5 5.20001 2.5c2.29999 0 3.5 -1.04999 3.5 -3
c0 -2.5 -1.65002 -4.5 -3.5 -4.5c-1.35001 0 -3.35001 1.70001 -5.20001 5zM295.95 403.05c-0.900024 0 -1.5 -0.75 -1.5 -1.5c0 -0.0999756 0 -0.25 0.0499878 -0.349976c0.799988 -3.10001 2.04999 -6.90002 3.64999 -10.25
c-0.149994 -0.200012 -0.25 -0.400024 -0.399994 -0.600006c-2.20001 -3.10001 -4.39999 -5.80002 -4.79999 -6.25c-0.300018 -0.300018 -0.5 -0.700012 -0.5 -1.10001c0 -0.899994 0.75 -1.5 1.5 -1.5c0.199982 0 0.449982 0.0499878 0.649994 0.149994
c1.04999 0.550018 2.75 3 5.14999 6.35001c1.79999 -2.89999 4.10001 -5.5 7.20001 -5.5c4.14999 0 6.5 4 6.5 7.5c0 3.85001 -3 6 -6.5 6c-2.15002 0 -4.5 -0.899994 -6.60001 -2.70001c-1.25 2.85001 -2.30002 6 -2.95001 8.60001
c-0.149994 0.649994 -0.799988 1.14999 -1.44998 1.14999zM334.15 401.2c-2.25 3.04999 -3.69998 6.19998 -3.69998 8.79999c0 1 0.649994 1.5 1 1.5c1.14999 0 3 -1.75 3 -5.5c0 -1.39999 -0.100006 -3.04999 -0.300018 -4.79999zM327.45 410
c0 -4.54999 3.04999 -9.20001 6.19998 -12.9c-0.399994 -2.60001 -0.899994 -5.39999 -1.35001 -7.75c-1.5 3.35001 -4.09998 6.64999 -7.84998 6.64999c-4.40002 0 -7 -3.39999 -7 -7.5c0 -1.54999 0.149994 -2.75 0.549988 -4.79999
c0.149994 -0.700012 0.75 -1.20001 1.45001 -1.20001c0.899994 0 1.5 0.75 1.5 1.5c0 0.100006 -0.0500183 0.200012 -0.0500183 0.299988c-0.399994 1.95001 -0.449982 2.75 -0.449982 4.20001c0 2.89999 1.39999 4.5 4 4.5c2.94998 0 6.29999 -5.70001 6.5 -10.55
c0.0499878 -0.75 0.649994 -1.45001 1.5 -1.45001c0.699982 0 1.29999 0.5 1.44998 1.20001c0.550018 2.64999 1.55002 7.29999 2.35001 12.1c1.89999 -1.84998 3.75 -3.44998 5.35001 -4.54999c0.25 -0.200012 0.549988 -0.25 0.850006 -0.25c0.75 0 1.5 0.649994 1.5 1.5
c0 0.5 -0.25 0.950012 -0.650024 1.25c-1.84998 1.29999 -4.34998 3.45001 -6.5 5.79999c0.350006 2.65002 0.650024 5.60001 0.650024 7.95001c0 4.25 -2.15002 8.5 -6 8.5c-2.65002 0 -4 -2.5 -4 -4.5zM361.85 402.95c-2.5 2.69998 -3.89999 5.04999 -3.89999 7.04999
c0 1 0.649994 1.5 1 1.5c1.29999 0 3.5 -1.95001 3.5 -5.5c0 -1.14999 -0.25 -2.14999 -0.600006 -3.04999zM366.95 394.5c0.799988 0 1.5 0.649994 1.5 1.5c0 0.399994 -0.200012 0.799988 -0.5 1.10001c-1.35001 1.19998 -2.65002 2.39999 -3.85001 3.54999
c0.75 1.45001 1.35001 3.25 1.35001 5.35001c0 4.45001 -2.80002 8.5 -6.5 8.5c-2.65002 0 -4 -2.5 -4 -4.5c0 -3.60001 2.44998 -6.79999 5.39999 -9.85001c-1.05002 -1.60001 -2.39999 -3.29999 -2.39999 -5.64999c0 -2.54999 1.5 -6.04999 1.5 -7.5
c0 -1.70001 -1.30002 -3 -3 -3c-1.55002 0 -5.5 0.600006 -5.5 2c0 0.399994 0.0999756 0.700012 0.399994 1.5c0.0499878 0.149994 0.100006 0.350006 0.100006 0.5c0 0.75 -0.600006 1.5 -1.5 1.5c-0.600006 0 -1.20001 -0.399994 -1.40002 -1
c-0.199982 -0.600006 -0.599976 -1.39999 -0.599976 -2.5c0 -3.60001 4.84998 -5 8.5 -5c3.29999 0 6 2.70001 6 6c0 2.54999 -1.5 6.04999 -1.5 7.5c0 0.950012 0.599976 2.04999 1.59998 3.54999c1.10001 -1.04999 2.25 -2.09998 3.40002 -3.14999
c0.299988 -0.25 0.649994 -0.399994 1 -0.399994zM39.5 336.5c0 0.75 -0.599998 1.5 -1.5 1.5c-0.650002 0 -1.2 -0.450012 -1.4 -1.04999c-0.299999 -0.850006 -1.25 -1.45001 -2.1 -1.45001c-3.5 0 -7.5 4.29999 -7.5 8c0 1.70001 0.75 2.5 2 2.5
c2.7 0 5.95 -2.29999 8.85 -5.95001c0.300003 -0.349976 0.700001 -0.549988 1.15 -0.549988c0.849998 0 1.5 0.799988 1.5 1.5c0 2.29999 0.450001 4 1.25 5.14999c0.150002 0.25 0.25 0.550018 0.25 0.850006c0 0.75 -0.650002 1.5 -1.5 1.5
c-0.5 0 -0.950001 -0.200012 -1.25 -0.649994c-0.650002 -0.950012 -1.1 -2.10001 -1.4 -3.35001c-2.55 2.54999 -5.55 4.5 -8.85 4.5c-3.25 0 -5 -2.70001 -5 -5.5c0 -5.29999 5 -11 10.5 -11c2.15 0 4.2 1.39999 4.9 3.54999
c0.0499992 0.150024 0.0999985 0.300018 0.0999985 0.450012zM51.5 316c0.900002 0 1.5 0.75 1.5 1.5c0 0.149994 -0.0499992 0.350006 -0.0999985 0.5c-1.6 4.39999 -3.25 11.3 -3.75 19.05c2.25 -2.44998 5.1 -4.54999 7.85 -4.54999c3.25 0 5.5 2.25 5.5 5.5
c0 5.20001 -4.45 11 -10 11c-1.45 0 -2.45 -0.299988 -3.15 -0.649994c-0.5 -0.25 -0.849998 -0.800018 -0.849998 -1.35001c0 -0.899994 0.75 -1.5 1.5 -1.5c0.200001 0 0.450001 0.0499878 0.650002 0.149994c0.299999 0.149994 0.799999 0.350006 1.85 0.350006
c3.45 0 7 -4.20001 7 -8c0 -1.75 -0.75 -2.5 -2.5 -2.5c-1.95 0 -6.3 3.39999 -8.15 7.14999c-0.25 0.5 -0.799999 0.850006 -1.35 0.850006c-0.799999 0 -1.5 -0.700012 -1.5 -1.5c0 -10.2 2.05 -19.3 4.1 -25c0.200001 -0.600006 0.800003 -1 1.4 -1zM79.5 334.5
c0 0.899994 -0.75 1.5 -1.5 1.5c-0.199997 0 -0.449997 -0.0499878 -0.650002 -0.149994c-0.549995 -0.300018 -0.949997 -0.350006 -1.85 -0.350006c-3 0 -6 3.25 -6 6.5c0 2.45001 1.55 4 4 4c2.25 0 3.8 -0.350006 6.65 -2.25
c0.25 -0.149994 0.549995 -0.25 0.849998 -0.25c0.75 0 1.5 0.649994 1.5 1.5c0 0.5 -0.199997 0.950012 -0.650002 1.25c-3.15 2.10001 -5.6 2.75 -8.35 2.75c-4.05 0 -7 -2.95001 -7 -7c0 -4.75 4 -9.5 9 -9.5c1.45 0 4 0.299988 4 2zM98.9 336.9
c0 -0.949982 -0.75 -1.39999 -1.9 -1.39999c-3.5 0 -7.5 4.29999 -7.5 8c0 1.70001 0.75 2.5 2 2.5h0.449997c1.3 0 3.9 -0.450012 6.7 -7.89999c-0.0500031 -0.200012 0.25 -1 0.25 -1.20001zM107 347.5c0 0.899994 -0.75 1.5 -1.5 1.5
c-0.199997 0 -0.449997 -0.0499878 -0.650002 -0.149994c-0.400002 -0.200012 -3.85 -2.20001 -3.85 -8.35001v-0.149994c-3.4 8.14999 -7.65 8.64999 -9.5 8.64999c-3.25 0 -5 -2.70001 -5 -5.5c0 -5.29999 5 -11 10.5 -11c1.25 0 2.2 0.100006 3.15 0.899994
c1.35 -5.10001 2.1 -9.5 2.85 -16.05c0.0999985 -0.75 0.75 -1.35001 1.5 -1.35001c0.949997 0 1.5 0.850006 1.5 1.54999c0 0.5 -0.25 2.80002 -0.349998 3.75c-0.450005 4.95001 -1.1 11 -1.5 16.2c-0.0999985 1.25 -0.150002 2.35001 -0.150002 3
c0 4.5 2.1 5.64999 2.2 5.70001c0.5 0.299988 0.800003 0.799988 0.800003 1.29999zM119 349c-4.8 0 -8 -3.75 -8 -8.5c0 -4.20001 3.05 -8 7.5 -8c2.8 0 5 2.20001 5 5c0 3.75 -3.25 7 -6.6 8.10001c0.599998 0.25 1.3 0.399994 2.1 0.399994
c1.85 0 3 -0.149994 5.35 -1.35001c0.200005 -0.100006 0.450005 -0.149994 0.650002 -0.149994c0.75 0 1.5 0.600006 1.5 1.5c0 0.549988 -0.349998 1.10001 -0.849998 1.35001c-2.65 1.29999 -4.5 1.64999 -6.65 1.64999zM114.45 343c2.75 0 6.05 -3 6.05 -5.5
c0 -1.20001 -0.800003 -2 -2 -2c-2.55 0 -4.5 2.20001 -4.5 5c0 0.950012 0.150002 1.79999 0.449997 2.5zM139.5 338.5c-0.800003 0 -1.5 -0.700012 -1.5 -1.5c0 -0.399994 0.149994 -0.75 0.449997 -1.04999c3.75 -3.75 5.05 -7.85001 5.05 -11.45
c0 -2.75 -1.39999 -4 -2 -4c-1 0 -1.7 0.600006 -2.7 3.04999c-1.05 2.65002 -1.8 8.05002 -1.8 13.95c0 3.04999 0.100006 6.14999 0.300003 9.14999c2.34999 -0.75 4.84999 -1.14999 6.7 -1.14999c0.800003 0 1.5 0.700012 1.5 1.5s-0.699997 1.5 -1.5 1.5
c-1.64999 0 -4.2 0.600006 -6.45 1.35001c0.599991 6.79999 1.55 12.5 2.3 14c0.0999908 0.199982 0.149994 0.449982 0.149994 0.649994c0 0.75 -0.600006 1.5 -1.5 1.5c-0.550003 0 -1.10001 -0.350006 -1.35001 -0.850006c-1.09999 -2.19998 -2 -7.60001 -2.54999 -14.1
c-0.650009 0.350006 -1.25 0.700012 -1.55 1c-0.300003 0.300018 -0.650009 0.450012 -1.05 0.450012c-0.800003 0 -1.5 -0.700012 -1.5 -1.5c0 -0.399994 0.149994 -0.75 0.449997 -1.04999c0.800003 -0.800018 2 -1.5 3.40001 -2.15002
c-0.200012 -3.34998 -0.350006 -6.84998 -0.350006 -10.3c0 -6.10001 0.649994 -11.7 2 -15.05c1 -2.55002 2.5 -4.95001 5.5 -4.95001c3.39999 0 5 3.75 5 7c0 4.39999 -1.7 9.29999 -5.95 13.55c-0.300003 0.300018 -0.650009 0.450012 -1.05 0.450012zM158.1 354.1
c-2.95001 3.14999 -4.60001 5.64999 -4.60001 6.89999c0 1.20001 0.800003 2 2 2c1.3 0 3.5 -1.95001 3.5 -5.5c0 -0.950012 -0.300003 -2.10001 -0.899994 -3.39999zM163.5 345c0.800003 0 1.5 0.700012 1.5 1.5c0 0.399994 -0.149994 0.75 -0.449997 1.04999l-4.25 4.25
c0.949997 1.80002 1.7 3.70001 1.7 5.70001c0 4.45001 -2.8 8.5 -6.5 8.5c-2.8 0 -5 -2.20001 -5 -5c0 -3.20001 2.8 -6.29999 6.05 -9.70001c-2.10001 -3.44998 -5.05 -7.25 -5.05 -11.3c0 -4.10001 2.60001 -7.5 7 -7.5c1.39999 0 3.2 0.549988 4.25 2.14999
c0.149994 0.25 0.25 0.550018 0.25 0.850006c0 0.75 -0.649994 1.5 -1.5 1.5c-0.5 0 -0.949997 -0.200012 -1.25 -0.649994c-0.350006 -0.5 -1.14999 -0.850006 -1.75 -0.850006c-2.60001 0 -4 1.60001 -4 4.5c0 2.39999 2.10001 5.60001 4.25 9.10001
c1.2 -1.20001 2.45 -2.39999 3.7 -3.64999c0.300003 -0.300018 0.650009 -0.450012 1.05 -0.450012zM189 347.5c0 0.799988 -0.699997 1.5 -1.5 1.5c-0.399994 0 -0.75 -0.149994 -1.05 -0.450012c-1.95 -1.94998 -2.45 -4.5 -2.45 -8.54999
c0 -4.35001 -0.649994 -4.5 -1 -4.5c-0.899994 0 -1.85001 0.75 -3.64999 4.39999c-1.70001 3.35001 -3.25 6.10001 -6.35001 6.10001c-3 0 -4 -2.79999 -4 -5c0 -11.15 2 -18.35 2 -23.5c0 -0.799988 0.699997 -1.5 1.5 -1.5s1.5 0.700012 1.5 1.5
c0 5.85001 -2 12.65 -2 23.5c0 1.79999 0.5 2 1 2c0.899994 0 1.85001 -0.75 3.64999 -4.39999c1.70001 -3.35001 3.25 -6.10001 6.35001 -6.10001c3.64999 0 4 3.85001 4 7.5c0 3.95001 0.5 5.39999 1.55 6.45001c0.300003 0.299988 0.449997 0.649994 0.449997 1.04999z
M196 325.5c0.850006 0 1.5 0.649994 1.5 1.5c0 1 -0.5 2 -1.5 2c-0.850006 0 -1.5 -0.649994 -1.5 -1.5c0 -1 0.5 -2 1.5 -2zM200.5 345.5c0.75 0 1.5 0.600006 1.5 1.5c0 0.600006 -0.350006 1.14999 -0.899994 1.39999
c-0.200012 0.100006 -1.5 0.600006 -3.10001 0.600006c-3.85001 0 -5 -3.85001 -5 -6.5c0 -4.29999 1.05 -8.79999 1.05 -8.85001c0.149994 -0.699982 0.75 -1.14999 1.45 -1.14999c0.899994 0 1.5 0.75 1.5 1.5c0 0.450012 -1 4.25 -1 8.5c0 2.35001 0.850006 3.5 2 3.5
c1.39999 0 1.8 -0.5 2.5 -0.5zM212.5 325.5c0.850006 0 1.5 0.649994 1.5 1.5c0 1 -0.5 2 -1.5 2c-0.850006 0 -1.5 -0.649994 -1.5 -1.5c0 -1 0.5 -2 1.5 -2zM213.3 352.4c-2.55 3.25 -4.3 6.64999 -4.3 9.10001c0 1 0.649994 1.5 1 1.5c1.05 0 3.5 -2.25 3.5 -7
c0 -1.14999 -0.100006 -2.35001 -0.199997 -3.60001zM212.8 348.4c-0.75 -4.69998 -1.8 -9.69998 -1.8 -14.4c0 -0.799988 0.699997 -1.5 1.5 -1.5s1.5 0.700012 1.5 1.5c0 3.60001 0.75 7.64999 1.39999 11.7c1.85001 -1.80002 3.70001 -3.40002 5.25 -4.45001
c0.25 -0.200012 0.550003 -0.25 0.850006 -0.25c0.75 0 1.5 0.649994 1.5 1.5c0 0.5 -0.25 0.950012 -0.649994 1.25c-1.75 1.20001 -4.25 3.29999 -6.40001 5.60001c0.300003 2.14999 0.550003 4.5 0.550003 6.64999c0 5.25 -2.55 10 -6.5 10c-2.64999 0 -4 -2.5 -4 -4.5
c0 -4.45001 3.39999 -9.29999 6.8 -13.1zM245 345c0.800003 0 1.5 0.649994 1.5 1.5c0 0.450012 -0.199997 0.899994 -0.600006 1.20001c-1.25 0.949982 -2.64999 1.29999 -3.89999 1.29999c-4.35001 0 -6.45 -5.14999 -7.39999 -8.04999
c-0.0500031 -0.150024 -0.100006 -0.300018 -0.100006 -0.450012c0 -0.75 0.600006 -1.5 1.5 -1.5c0.649994 0 1.2 0.450012 1.39999 1.04999c1.05 3.10001 2.95001 5.95001 4.60001 5.95001c0.75 0 1.35001 -0.149994 2.10001 -0.700012
c0.25 -0.199982 0.599991 -0.299988 0.899994 -0.299988zM230 316c0.899994 0 1.5 0.75 1.5 1.5c0 0.100006 -0.0500031 0.200012 -0.0500031 0.299988c-0.949997 4.85001 -1.45 10.8 -1.45 16.2c0 1.54999 0.149994 3.29999 0.399994 5.10001
c1.95001 -3.80002 5 -5.85001 10.4 -6.60001h0.199997c0.800003 0 1.5 0.600006 1.5 1.5c0 0.75 -0.550003 1.39999 -1.3 1.5c-3.3 0.450012 -5.3 1.45001 -6.5 2.64999c-1.34999 1.35001 -2.25 3.30002 -3.25 6.75c-0.199997 0.649994 -0.800003 1.10001 -1.45 1.10001
c-0.75 0 -1.3 -0.5 -1.45 -1.04999c-0.800003 -2.70001 -1.55 -7.25 -1.55 -10.95c0 -5.60001 0.5 -11.65 1.55 -16.8c0.149994 -0.700012 0.75 -1.20001 1.45 -1.20001zM256 338.5c-0.800003 0 -1.5 -0.700012 -1.5 -1.5c0 -0.399994 0.149994 -0.75 0.449997 -1.04999
c3.75002 -3.75 5.05 -7.85001 5.05 -11.45c0 -2.75 -1.39999 -4 -2 -4c-1 0 -1.70001 0.600006 -2.7 3.04999c-1.05 2.65002 -1.8 8.05002 -1.8 13.95c0 5 1.45 8.5 5 8.5c2 0 3.60001 -0.700012 5.95001 -3.04999c0.299988 -0.300018 0.649994 -0.450012 1.04999 -0.450012
c0.799988 0 1.5 0.700012 1.5 1.5c0 0.399994 -0.149994 0.75 -0.450012 1.04999c-2.64999 2.65002 -5.04999 3.95001 -8.04999 3.95001c-6.45 0 -8 -6.5 -8 -11.5c0 -6.10001 0.649994 -11.7 2 -15.05c1 -2.55002 2.5 -4.95001 5.5 -4.95001c3.39999 0 5 3.75 5 7
c0 4.39999 -1.70001 9.29999 -5.95001 13.55c-0.299988 0.300018 -0.649994 0.450012 -1.04999 0.450012zM320.5 344.5c0.799988 0 1.5 0.700012 1.5 1.5c0 0.399994 -0.149994 0.75 -0.450012 1.04999c-1.14999 1.15002 -2.5 1.95001 -4.04999 1.95001
c-3.14999 0 -4.5 -2.75 -4.5 -6c0 -4.35001 -0.649994 -4.5 -1 -4.5c-0.850006 0 -2.10001 1.39999 -4.25 4.60001c-1.85001 2.79999 -3.60001 5.89999 -6.75 5.89999c-3.64999 0 -4 -3.85001 -4 -7.5c0 -4.35001 -0.649994 -4.5 -1 -4.5
c-0.850006 0 -2.10001 1.39999 -4.25 4.60001c-1.85001 2.79999 -3.60001 5.89999 -6.75 5.89999c-3.64999 0 -4 -3.85001 -4 -7.5c0 -4.14999 -0.649994 -4.5 -1.5 -4.5c-0.899994 0 -1.85001 0.75 -3.64999 4.39999c-0.550018 1.10001 -1.25 2.10001 -2.30002 3.14999
c-0.299988 0.300018 -0.649994 0.450012 -1.04999 0.450012c-0.799988 0 -1.5 -0.700012 -1.5 -1.5c0 -0.399994 0.149994 -0.75 0.450012 -1.04999c0.849976 -0.850006 1.25 -1.45001 1.69998 -2.35001c1.70001 -3.35001 3.25 -6.10001 6.35001 -6.10001
c3.75 0 4.5 3.64999 4.5 7.5c0 4.35001 0.649994 4.5 1 4.5c0.850006 0 2.10001 -1.39999 4.25 -4.60001c1.85001 -2.79999 3.60001 -5.89999 6.75 -5.89999c3.64999 0 4 3.85001 4 7.5c0 4.35001 0.649994 4.5 1 4.5c0.850006 0 2.10001 -1.39999 4.25 -4.60001
c1.85001 -2.79999 3.60001 -5.89999 6.75 -5.89999c3.64999 0 4 3.85001 4 7.5c0 2.75 0.649994 3 1.5 3c0.450012 0 1.10001 -0.200012 1.95001 -1.04999c0.299988 -0.300018 0.649994 -0.450012 1.04999 -0.450012z" />
   <path fill="#ffffff"
d="M148.5 429.75c-0.800781 0 -1.5 -0.700195 -1.5 -1.5c0 -0.400391 0.150391 -0.75 0.400391 -1.0498c0.25 -0.25 2.59961 -2.4502 7.09961 -2.4502c5.19922 0 9.5 3.59961 9.5 9c0 7.09961 -6.40039 13.5 -13.5 13.5c-4.55078 0 -8.5 -3.2002 -8.5 -8
c0 -5.34961 4.09961 -7.7002 4.2998 -7.7998c0.25 -0.100586 0.450195 -0.200195 0.700195 -0.200195c0.75 0 1.5 0.650391 1.5 1.5c0 0.5 -0.25 0.950195 -0.700195 1.25c-0.200195 0.150391 -2.7998 1.75 -2.7998 5.25c0 2.90039 2.34961 5 5.5 5
c5.40039 0 10.5 -5.09961 10.5 -10.5c0 -3.59961 -2.7002 -6 -6.5 -6c-3.25 0 -4.80078 1.40039 -5 1.59961c-0.25 0.200195 -0.599609 0.400391 -1 0.400391zM168 447.75c-0.800781 0 -1.5 -0.650391 -1.5 -1.5c0 -0.400391 0.150391 -0.799805 0.5 -1.09961
c8.25 -7.30078 13.5996 -17.5508 14 -21.5508c0.0498047 -0.75 0.75 -1.34961 1.5 -1.34961c0.849609 0 1.5 0.75 1.5 1.5c0 2.7998 -1 10.0498 -1 17c0 2.59961 0.0996094 5.09961 0.5 7.25v0.25c0 0.75 -0.599609 1.5 -1.5 1.5c-0.700195 0 -1.34961 -0.549805 -1.5 -1.25
c-0.400391 -2.4502 -0.5 -5.0498 -0.5 -7.75c0 -2.5 0.150391 -4.84961 0.299805 -7.25c-2.5498 4.5 -6.5 9.59961 -11.2998 13.8496c-0.300781 0.25 -0.650391 0.400391 -1 0.400391zM197.25 428.75c0 0.75 -0.599609 1.5 -1.5 1.5
c-0.550781 0 -1.05078 -0.25 -1.34961 -0.799805c-0.100586 -0.200195 -0.400391 -0.950195 -0.400391 -2.2002c0 -3.0498 2.90039 -5 5.5 -5c2.7998 0 5 2.2002 5 5c0 1.9502 -1.05078 3.5498 -2.25 5.34961c-1.55078 2.30078 -4.30078 5.85059 -5.4502 7.90039
c-1 1.75 -1.2998 2.59961 -1.2998 3.75c0 0.450195 0.150391 0.849609 0.75 1.2002c1.40039 0.849609 5.7998 1.2998 8.75 1.2998c0.799805 0 1.5 0.700195 1.5 1.5s-0.700195 1.5 -1.5 1.5c-4.7002 0 -12.5 -0.299805 -12.5 -5.5
c0 -1.84961 0.699219 -3.40039 1.69922 -5.25c1.35059 -2.4502 4.10059 -5.90039 5.55078 -8.09961c1.19922 -1.80078 1.75 -2.90039 1.75 -3.65039c0 -1.2002 -0.800781 -2 -2 -2c-1.40039 0 -2.5 1.0498 -2.5 2c0 1 0.25 0.799805 0.25 1.5zM217.5 426.25
c-0.75 0 -1.5 -0.599609 -1.5 -1.5c0 -0.599609 0.349609 -1.15039 0.949219 -1.40039c2.55078 -1 5.10059 -1.09961 6.55078 -1.09961c2.65039 0 6.5 1.15039 6.5 5c0 2.40039 -1.84961 3.9502 -3.40039 5c-1.44922 0.950195 -2.09961 1.90039 -2.09961 2.5
s0.549805 1.09961 2.5 2.2002c1.65039 0.899414 4 2.09961 4 4.7998c0 5.84961 -10.1504 8 -14 8c-0.800781 0 -1.5 -0.700195 -1.5 -1.5s0.699219 -1.5 1.5 -1.5c4.15039 0 11 -2.84961 11 -5c0 -0.599609 -0.550781 -1.09961 -2.5 -2.2002
c-1.65039 -0.899414 -4 -2.09961 -4 -4.7998c0 -2.40039 1.84961 -3.9502 3.40039 -5c1.44922 -0.950195 2.09961 -1.90039 2.09961 -2.5c0 -1.15039 -1.15039 -2 -3.5 -2c-1.34961 0 -3.5 0.0996094 -5.4502 0.900391
c-0.200195 0.0498047 -0.350586 0.0996094 -0.549805 0.0996094zM254.5 448.25c0 0.799805 -0.700195 1.5 -1.5 1.5c-0.400391 0 -0.75 -0.150391 -1.05078 -0.400391c-0.298828 -0.299805 -1.44922 -1.69922 -1.44922 -4.59961c0 -1.40039 0.199219 -2.9502 0.349609 -4
c-1.2998 0.549805 -2.69922 1 -4.34961 1c-4.4502 0 -7.5 -3.7998 -7.5 -8c0 -6.5 3.19922 -10.7998 3.2998 -10.9004c0.299805 -0.399414 0.75 -0.599609 1.2002 -0.599609c0.849609 0 1.5 0.700195 1.5 1.5c0 0.299805 -0.0507812 0.599609 -0.25 0.849609
c-0.0996094 0.150391 -2.75 3.75 -2.75 9.15039c0 2.7998 1.94922 5 4.5 5c2.75 0 5.44922 -2.0498 5.5498 -2.15039c0.299805 -0.25 0.649414 -0.349609 0.950195 -0.349609c0.799805 0 1.5 0.650391 1.5 1.5c0 0.599609 -1 3.34961 -1 7
c0 1.75 0.549805 2.40039 0.599609 2.4502c0.25 0.299805 0.400391 0.649414 0.400391 1.0498zM260.5 446.2c0 -0.850586 0.75 -1.4502 1.5 -1.4502c0.349609 0 0.650391 0.0996094 0.900391 0.299805c0.149414 0.100586 2.29883 1.7002 4.59961 1.7002
c3.2998 0 5.5 -1.34961 5.5 -3.5c0 -1.59961 -1.84961 -3.84961 -4.34961 -6.4502c-2.30078 -2.39941 -5.15039 -5.14941 -5.15039 -8.5498c0 -2.0498 0.549805 -3.40039 0.599609 -3.59961c0.25 -0.600586 0.849609 -0.900391 1.40039 -0.900391
c0.900391 0 1.5 0.75 1.5 1.5c0 0.799805 -0.5 1.0498 -0.5 3c0 1.59961 1.84961 3.84961 4.34961 6.4502c2.30078 2.39941 5.15039 5.14941 5.15039 8.5498c0 4.84961 -4.80078 6.5 -8.5 6.5c-3.59961 0 -6.25 -2.2002 -6.4502 -2.34961
c-0.350586 -0.300781 -0.549805 -0.75 -0.549805 -1.2002zM270.1 427.75c-0.75 0 -1.5 -0.549805 -1.5 -1.4502c0 -0.549805 0.349609 -1.09961 0.800781 -1.34961c0.199219 -0.100586 3.19922 -1.65039 8.84961 -2.7002h0.25c0.75 0 1.5 0.599609 1.5 1.5
c0 0.700195 -0.550781 1.34961 -1.25 1.5c-5.2002 0.950195 -7.84961 2.2998 -8 2.34961c-0.200195 0.100586 -0.450195 0.150391 -0.650391 0.150391zM292 439.25c-0.800781 0 -1.5 -0.700195 -1.5 -1.5c0 -0.400391 0.150391 -0.75 0.400391 -1.0498
c0.199219 -0.200195 2 -1.9502 5.09961 -1.9502c3.44922 0 6 2.5498 6 6c0 5.2002 -5.90039 9 -10.5 9c-4.25 0 -7 -2.75 -7 -7c0 -11.75 16.2998 -20.2998 16.2998 -20.2998c0.200195 -0.100586 0.450195 -0.200195 0.700195 -0.200195c0.75 0 1.5 0.599609 1.5 1.5
c0 0.5 -0.25 1 -0.75 1.2998c-0.5 0.25 -14.75 8.5498 -14.75 17.7002c0 2.75 1.25 4 4 4c3.40039 0 7.5 -3.2002 7.5 -6c0 -1.84961 -1.15039 -3 -3 -3c-1.75 0 -2.80078 0.900391 -3 1.09961c-0.25 0.25 -0.599609 0.400391 -1 0.400391zM317.9 440.6
c-3.5 0.600586 -5.35059 1.15039 -5.90039 1.15039c-0.75 0 -1.5 -0.599609 -1.5 -1.5c0 -0.700195 0.449219 -1.2998 1.15039 -1.4502c0.0488281 0 3.19922 -0.75 6.94922 -1.34961c0.5 -2.5498 0.900391 -5 0.900391 -6.7002c0 -3.7002 -1.15039 -5.5 -4 -5.5
c-4.75 0 -5 1.5 -5 2c0 1.40039 1 1.2998 1 2.5c0 0.799805 -0.700195 1.5 -1.5 1.5c-0.400391 0 -0.75 -0.150391 -1.05078 -0.400391c-0.199219 -0.199219 -1.44922 -1.44922 -1.44922 -3.59961c0 -2.90039 2.75 -5 8 -5c5.15039 0 7 4.2002 7 8.5
c0 1.75 -0.25 3.9502 -0.700195 6.25c1.4502 -0.150391 2.89941 -0.25 4.2002 -0.25c0.799805 0 1.5 0.700195 1.5 1.5s-0.700195 1.5 -1.5 1.5c-1.4502 0 -3.15039 0.150391 -4.84961 0.349609c-1 4.4502 -2.15039 8.4502 -2.20117 8.55078
c-0.199219 0.649414 -0.798828 1.09961 -1.44922 1.09961c-0.900391 0 -1.5 -0.75 -1.5 -1.5c0 -0.650391 0.900391 -3.2998 1.90039 -7.65039zM338.949 439.55c-1.89941 1.7002 -2.94922 3.15039 -2.94922 4.2002c0 2.2002 1.59961 3 5 3c1.19922 0 2 -0.799805 2 -2
c0 -0.849609 -1.59961 -2.90039 -4.05078 -5.2002zM336 426.25c0.75 0 1.5 0.650391 1.5 1.5c0 0.5 -0.25 0.950195 -0.650391 1.25c0 0 -0.849609 0.650391 -0.849609 2.25c0 0.700195 1.09961 2.34961 3.0498 4.25c3.35059 -2.7002 5.9502 -5.09961 5.9502 -6.75
c0 -2.0498 -1.65039 -3.5 -4 -3.5c-2.25 0 -1.65039 1 -3 1c-0.800781 0 -1.5 -0.700195 -1.5 -1.5c0 -0.349609 0.0996094 -0.75 0.400391 -1.0498c0.199219 -0.200195 1.54883 -1.4502 4.09961 -1.4502c3.65039 0 7 2.5498 7 6.5c0 3.75 -3.84961 6.5 -6.75 8.84961
c2.15039 2.05078 4.75 4.35059 4.75 7.15039s-2.2002 5 -5 5c-3.59961 0 -8 -1.2002 -8 -6c0 -2.59961 1.84961 -4.59961 3.75 -6.2998c-1.80078 -1.7998 -3.75 -3.75 -3.75 -6.2002c0 -3.15039 1.90039 -4.5498 2.19922 -4.75c0.25 -0.150391 0.5 -0.25 0.800781 -0.25z
M368 424.75c0 0.799805 -0.650391 1.5 -1.4502 1.5c-1.39941 0 -0.799805 -1 -3.0498 -1c-2.55078 0 -4.5 2.2002 -4.5 5c0 2.2002 1.2998 3.5 3.5 3.5c2.75 0 6 -2.0498 6 -3.5c0 -0.75 -0.150391 -1.2998 -0.400391 -2.0498
c-0.0498047 -0.150391 -0.0996094 -0.299805 -0.0996094 -0.450195c0 -0.75 0.549805 -1.5 1.44922 -1.5c0.650391 0 1.25 0.450195 1.45117 0.950195c0.649414 1.5498 1.09961 4.39941 1.09961 7.5498c0 8.7002 -5.80078 14.4502 -5.9502 14.5996
c-0.299805 0.300781 -0.700195 0.400391 -1.0498 0.400391c-0.800781 0 -1.5 -0.700195 -1.5 -1.5c0 -0.349609 0.150391 -0.75 0.400391 -1.0498c0.0996094 -0.100586 5.09961 -5.2002 5.09961 -12.4502v-0.150391c-1.90039 1.40039 -4.40039 2.15039 -6.5 2.15039
c-3.80078 0 -6.5 -2.7002 -6.5 -6.5c0 -4.2002 3.0498 -8 7.5 -8c2.5 0 3.84961 1.2002 4.09961 1.4502c0.25 0.299805 0.400391 0.649414 0.400391 1.0498z" />
	</g>
</g>
</svg>
